<?xml version="1.0" encoding="UTF-8" standalone="no"?>
<!-- Created with Inkscape (http://www.inkscape.org/) -->

<svg
   xmlns:dc="http://purl.org/dc/elements/1.1/"
   xmlns:cc="http://creativecommons.org/ns#"
   xmlns:rdf="http://www.w3.org/1999/02/22-rdf-syntax-ns#"
   xmlns:svg="http://www.w3.org/2000/svg"
   xmlns="http://www.w3.org/2000/svg"
   xmlns:sodipodi="http://sodipodi.sourceforge.net/DTD/sodipodi-0.dtd"
   xmlns:inkscape="http://www.inkscape.org/namespaces/inkscape"
   width="175.24919mm"
   height="104.51751mm"
   viewBox="0 0 175.24919 104.51751"
   version="1.1"
   id="svg4588"
   sodipodi:docname="cutpslsh.svg"
   inkscape:version="0.92.2 5c3e80d, 2017-08-06">
  <defs
     id="defs4582">
    <clipPath
       clipPathUnits="userSpaceOnUse"
       id="clipPath5965-7">
      <rect
         y="325.75577"
         x="67.466034"
         height="95.615128"
         width="175.24919"
         id="rect5967-8"
         style="fill:#ececec;fill-opacity:0.8627451;stroke:#4a4a4a;stroke-width:0.28784874;stroke-miterlimit:4;stroke-dasharray:none;stroke-opacity:1" />
    </clipPath>
    <clipPath
       clipPathUnits="userSpaceOnUse"
       id="clipPath5215">
      <rect
         y="325.75577"
         x="67.466034"
         height="95.615128"
         width="175.24919"
         id="rect5213"
         style="fill:#ececec;fill-opacity:0.8627451;stroke:#4a4a4a;stroke-width:0.28784874;stroke-miterlimit:4;stroke-dasharray:none;stroke-opacity:1" />
    </clipPath>
    <clipPath
       clipPathUnits="userSpaceOnUse"
       id="clipPath5501">
      <rect
         y="58.873047"
         x="-233.36414"
         height="104.31699"
         width="87.588432"
         id="rect5503"
         style="opacity:1;fill:#ffffff;fill-opacity:1;stroke:none;stroke-width:0.53744465;stroke-miterlimit:4;stroke-dasharray:none;stroke-opacity:1" />
    </clipPath>
    <clipPath
       clipPathUnits="userSpaceOnUse"
       id="clipPath5505">
      <rect
         style="opacity:1;fill:#ffffff;fill-opacity:1;stroke:none;stroke-width:0.53744465;stroke-miterlimit:4;stroke-dasharray:none;stroke-opacity:1"
         id="rect5507"
         width="87.588432"
         height="104.31699"
         x="-322.95938"
         y="58.873055" />
    </clipPath>
  </defs>
  <sodipodi:namedview
     id="base"
     pagecolor="#ffffff"
     bordercolor="#666666"
     borderopacity="1.0"
     inkscape:pageopacity="0.0"
     inkscape:pageshadow="2"
     inkscape:zoom="0.7"
     inkscape:cx="375.68779"
     inkscape:cy="194.406"
     inkscape:document-units="mm"
     inkscape:current-layer="layer1"
     showgrid="false"
     inkscape:window-width="1366"
     inkscape:window-height="706"
     inkscape:window-x="0"
     inkscape:window-y="34"
     inkscape:window-maximized="1"
     fit-margin-top="0"
     fit-margin-left="0"
     fit-margin-right="0"
     fit-margin-bottom="0" />
  <metadata
     id="metadata4585">
    <rdf:RDF>
      <cc:Work
         rdf:about="">
        <dc:format>image/svg+xml</dc:format>
        <dc:type
           rdf:resource="http://purl.org/dc/dcmitype/StillImage" />
        <dc:title></dc:title>
      </cc:Work>
    </rdf:RDF>
  </metadata>
  <g
     inkscape:label="Layer 1"
     inkscape:groupmode="layer"
     id="layer1"
     transform="translate(-20.476594,-147.50687)">
    <g
       id="g5461">
      <g
         transform="translate(342.44643,88.633824)"
         id="g5632"
         clip-path="url(#clipPath5501)">
        <g
           id="g5630">
          <path
             id="path5580"
             style="fill:none;fill-opacity:1;stroke:#333333;stroke-width:0.26458332;stroke-linecap:butt;stroke-linejoin:miter;stroke-opacity:1"
             d="m 334.36958,361.83966 v -6.61458 l -5.72839,-3.30729 v 6.61458 l -5.7284,3.30729 v -6.61458 -6.61459 l 5.7284,-3.30729 v -6.61458 l -5.7284,-3.30729 -5.7284,-3.30729 v 6.61458 l 5.7284,3.30729 -5.7284,3.30729 -5.7284,-3.30729 -5.72839,3.30729 v 6.61459 6.61458 l 5.72839,-3.30729 v -6.61459 l 5.7284,3.3073 v 6.61458 l -5.7284,3.30729 v 6.61458 l 5.7284,-3.30729 5.7284,3.30729 -5.7284,3.3073 -5.7284,3.30729 -5.72839,-3.30729 v -6.61459 l -5.7284,-3.30729 v 6.61458 l -5.7284,3.3073 v -6.61459 -6.61458 l 5.7284,-3.30729 v -6.61459 l -5.7284,-3.30729 v 6.61459 l -5.72839,3.30729 v -6.61459 -6.61458 l 5.72839,-3.30729 5.7284,3.30729 5.7284,-3.30729 5.72839,-3.30729 -5.72839,-3.30729 -5.7284,3.30729 v -6.61459 l 5.7284,-3.30729 v -6.61458 l -5.7284,-3.30729 v 6.61458 l -5.7284,3.30729 v -6.61458 -6.61458 l 5.7284,-3.3073 v -6.61458 l -5.7284,-3.30729 -5.72839,-3.30729 v 6.61458 l 5.72839,3.30729 -5.72839,3.30729 -5.7284,-3.30729 v -6.61458 l -5.7284,-3.30729 -5.7284,-3.30729 v 6.61458 l 5.7284,3.30729 -5.7284,3.30729 -5.72839,-3.30729 -5.7284,3.30729 v 6.61459 6.61458 l 5.7284,-3.30729 v -6.61459 l 5.72839,3.3073 v 6.61458 l 5.7284,3.30729 5.7284,-3.30729 -5.7284,-3.30729 v -6.61459 l 5.7284,3.3073 5.7284,3.30729 v 6.61458 l -5.7284,3.30729 v 6.61459 l 5.7284,-3.3073 5.72839,3.3073 -5.72839,3.30729 -5.7284,3.30729 -5.7284,-3.30729 v -6.61459 l -5.7284,-3.30729 -5.72839,-3.30729 v 6.61458 l 5.72839,3.3073 -5.72839,3.30729 -5.7284,-3.30729 -5.7284,3.30729 v 6.61458 l 5.7284,-3.30729 5.7284,3.30729 -5.7284,3.30729 -5.7284,3.30729 -5.72839,-3.30729 -5.7284,3.30729 v 6.61459 6.61458 l 5.7284,-3.30729 v -6.61458 l 5.72839,3.30729 v 6.61458 l -5.72839,3.30729 v 6.61459 6.61458 l 5.72839,-3.30729 v -6.61459 l 5.7284,3.3073 v 6.61458 l 5.7284,3.30729 5.72839,-3.30729 5.7284,-3.30729 -5.7284,-3.30729 -5.72839,3.30729 v -6.61459 l 5.72839,-3.30729 v -6.61458 l -5.72839,-3.30729 v 6.61458 l -5.7284,3.30729 v -6.61458 -6.61458 l 5.7284,-3.3073 5.72839,3.3073 5.7284,-3.3073 -5.7284,-3.30729 v -6.61458 l 5.7284,3.30729 5.7284,3.30729 v 6.61459 l -5.7284,3.30729 v 6.61458 6.61458 l 5.7284,-3.30729 v -6.61458 l 5.7284,3.30729 v 6.61458 l -5.7284,3.3073 v 6.61458 l 5.7284,-3.30729 5.72839,3.30729 -5.72839,3.30729 -5.7284,3.30729 -5.7284,-3.30729 -5.7284,3.30729 v 6.61459 6.61458 l 5.7284,-3.30729 v -6.61459 l 5.7284,3.3073 v 6.61458 l 5.7284,3.30729 5.72839,-3.30729 5.7284,-3.30729 -5.7284,-3.30729 -5.72839,3.30729 v -6.61459 l 5.72839,-3.30729 5.7284,3.30729 5.7284,-3.30729 -5.7284,-3.30729 v -6.61458 l 5.7284,3.30729 5.72839,3.30729 v 6.61458 l -5.72839,3.3073 v 6.61458 l 5.72839,-3.30729 5.7284,3.30729 -5.7284,3.30729 -5.72839,3.30729 -5.7284,-3.30729 -5.7284,3.30729 v 6.61459 l 5.7284,-3.3073 5.7284,3.3073 -5.7284,3.30729 -5.7284,3.30729 -5.72839,-3.30729 v -6.61459 l -5.7284,-3.30729 -5.7284,-3.30729 v 6.61458 l 5.7284,3.3073 -5.7284,3.30729 -5.7284,-3.30729 v -6.61459 l -5.72839,-3.30729 v 6.61458 l -5.7284,3.3073 v -6.61459 -6.61458 l 5.7284,-3.30729 v -6.61459 l -5.7284,-3.30729 -5.7284,-3.30729 v 6.61458 l 5.7284,3.3073 -5.7284,3.30729 -5.72839,-3.30729 -5.7284,3.30729 v 6.61458 6.61458 l 5.7284,-3.30729 v -6.61458 l 5.72839,3.30729 v 6.61458 l -5.72839,3.3073 v 6.61458 l 5.72839,-3.30729 5.7284,3.30729 -5.7284,3.30729 -5.72839,3.30729 -5.7284,-3.30729 v -6.61458 l -5.7284,-3.30729 v 6.61458 l -5.7284,3.30729 v -6.61458 -6.61459 l 5.7284,-3.30729 v -6.61458 l -5.7284,-3.30729 v 6.61458 l -5.72839,3.30729 v -6.61458 -6.61458 l 5.72839,-3.3073 5.7284,3.3073 5.7284,-3.3073 5.7284,-3.30729 -5.7284,-3.30729 -5.7284,3.30729 v -6.61458 l 5.7284,-3.30729 v -6.61459 l -5.7284,-3.30729 v 6.61459 l -5.7284,3.30729 v -6.61459 -6.61458 l 5.7284,-3.30729 v -6.61458 l -5.7284,-3.3073 -5.72839,-3.30729 v 6.61459 l 5.72839,3.30729 -5.72839,3.30729 -5.7284,-3.30729 -5.72841,3.30729 v 6.61458 6.61459 l 5.72841,-3.3073 v -6.61458 l 5.7284,3.30729 v 6.61459 l -5.7284,3.30729 v 6.61458 l 5.7284,-3.30729 5.72839,3.30729 -5.72839,3.30729 -5.7284,3.30729 -5.72841,-3.30729 v -6.61458 l -5.7284,-3.30729 v 6.61458 l -5.72839,3.30729 v -6.61458 -6.61458 l 5.72839,-3.3073 v -6.61458 l -5.72839,-3.30729 v 6.61458 l -5.7284,3.30729 v -6.61458 -6.61458 l 5.7284,-3.30729 5.72839,3.30729 5.7284,-3.30729 5.72841,-3.3073 -5.72841,-3.30729 -5.7284,3.30729 v -6.61458 l 5.7284,-3.30729 5.72841,3.30729 5.7284,-3.30729 -5.7284,-3.30729 v -6.61459 l 5.7284,3.3073 5.72839,3.30729 v 6.61458 l 5.7284,3.30729 5.7284,-3.30729 5.7284,-3.30729 -5.7284,-3.30729 -5.7284,3.30729 v -6.61458 l 5.7284,-3.3073 5.7284,3.3073 5.72839,-3.3073 5.7284,-3.30729 -5.7284,-3.30729 -5.72839,3.30729 v -6.61458 l 5.72839,-3.30729 v -6.61459 l -5.72839,-3.30729 -5.7284,-3.30729 v 6.61458 l 5.7284,3.3073 -5.7284,3.30729 -5.7284,-3.30729 -5.7284,3.30729 v 6.61458 l 5.7284,-3.30729 5.7284,3.30729 -5.7284,3.30729 -5.7284,3.30729 -5.72839,-3.30729 v -6.61458 l -5.7284,-3.30729 v 6.61458 l -5.72841,3.30729 v -6.61458 -6.61458 l 5.72841,-3.3073 5.7284,3.3073 5.72839,-3.3073 5.7284,-3.30729 -5.7284,-3.30729 -5.72839,3.30729 v -6.61458 l 5.72839,-3.30729 v -6.61459 l -5.72839,-3.30729 v 6.61459 l -5.7284,3.30729 v -6.61459 -6.61458 l 5.7284,-3.30729 v -6.61458 l -5.7284,-3.3073 -5.72841,-3.30729 v 6.61459 l 5.72841,3.30729 -5.72841,3.30729 -5.7284,-3.30729 -5.72839,3.30729 v 6.61458 6.61459 l 5.72839,-3.3073 v -6.61458 l 5.7284,3.30729 v 6.61459 l -5.7284,3.30729 v 6.61458 l 5.7284,-3.30729 5.72841,3.30729 -5.72841,3.30729 -5.7284,3.30729 -5.72839,-3.30729 v -6.61458 l -5.7284,-3.30729 v 6.61458 l -5.72839,3.30729 v -6.61458 -6.61458 l 5.72839,-3.3073 v -6.61458 l -5.72839,-3.30729 v 6.61458 l -5.72839,3.30729 v -6.61458 -6.61458 l 5.72839,-3.30729 5.72839,3.30729 5.7284,-3.30729 5.72839,-3.3073 -5.72839,-3.30729 -5.7284,3.30729 v -6.61458 l 5.7284,-3.30729 v -6.61458 l -5.7284,-3.3073 v 6.61459 l -5.72839,3.30729 v -6.61458 -6.61459 l 5.72839,-3.30729 v -6.61458 l -5.72839,-3.30729 -5.72839,-3.3073 v 6.61459 l 5.72839,3.30729 -5.72839,3.30729 -5.7284,-3.30729 v -6.61458 l -5.7284,-3.3073 -5.7284,-3.30729 v 6.61459 l 5.7284,3.30729 -5.7284,3.30729 -5.72839,-3.30729 -5.7284,3.30729 v 6.61458 6.61459 l 5.7284,-3.3073 v -6.61458 l 5.72839,3.30729 v 6.61459 l 5.7284,3.30729 5.7284,-3.30729 -5.7284,-3.3073 v -6.61458 l 5.7284,3.30729 5.7284,3.30729 v 6.61459 l -5.7284,3.30729 v 6.61458 l 5.7284,-3.30729 5.72839,3.30729 -5.72839,3.30729 -5.7284,3.3073 -5.7284,-3.3073 v -6.61458 l -5.7284,-3.30729 -5.72839,-3.30729 v 6.61458 l 5.72839,3.30729 -5.72839,3.30729 -5.7284,-3.30729 v -6.61458 l -5.7284,-3.30729 v 6.61458 l -5.7284,3.30729 v -6.61458 -6.61458 l 5.7284,-3.3073 v -6.61458 l -5.7284,-3.30729 -5.7284,-3.30729 v 6.61458 l 5.7284,3.30729 -5.7284,3.30729 -5.7284,-3.30729 v -6.61458 l -5.7284,-3.30729 -5.72839,-3.30729 v 6.61458 l 5.72839,3.30729 -5.72839,3.30729 -5.7284,-3.30729 -5.7284,3.30729 v 6.61459 6.61458 l 5.7284,-3.30729 v -6.61459 l 5.7284,3.3073 v 6.61458 l 5.72839,3.30729 5.7284,-3.30729 -5.7284,-3.30729 v -6.61459 l 5.7284,3.3073 5.7284,3.30729 v 6.61458 l -5.7284,3.30729 v 6.61459 l 5.7284,-3.3073 5.7284,3.3073 -5.7284,3.30729 -5.7284,3.30729 -5.7284,-3.30729 v -6.61459 l -5.72839,-3.30729 -5.7284,-3.30729 v 6.61458 l 5.7284,3.3073 -5.7284,3.30729 -5.7284,-3.30729 -5.7284,3.30729 v 6.61458 l 5.7284,-3.30729 5.7284,3.30729 -5.7284,3.30729 -5.7284,3.30729 -5.728394,-3.30729 -5.7284,3.30729 v 6.61459 6.61458 l 5.7284,-3.30729 v -6.61458 l 5.728394,3.30729 v 6.61458 l -5.728394,3.30729 v 6.61459 6.61458 l 5.728394,-3.30729 v -6.61459 l 5.7284,3.3073 v 6.61458 l 5.7284,3.30729 5.7284,-3.30729 5.72839,-3.30729 -5.72839,-3.30729 -5.7284,3.30729 v -6.61459 l 5.7284,-3.30729 v -6.61458 l -5.7284,-3.30729 v 6.61458 l -5.7284,3.30729 v -6.61458 -6.61458 l 5.7284,-3.3073 5.7284,3.3073 5.72839,-3.3073 -5.72839,-3.30729 v -6.61458 l 5.72839,3.30729 5.7284,3.30729 v 6.61459 l -5.7284,3.30729 v 6.61458 6.61458 l 5.7284,-3.30729 v -6.61458 l 5.7284,3.30729 v 6.61458 l 5.7284,3.3073 5.7284,-3.3073 -5.7284,-3.30729 v -6.61458 l 5.7284,3.30729 5.7284,3.30729 v 6.61459 l 5.7284,3.30729 5.72839,-3.30729 5.7284,-3.3073 -5.7284,-3.30729 -5.72839,3.30729 v -6.61458 l 5.72839,-3.30729 v -6.61458 l -5.72839,-3.3073 -5.7284,-3.30729 v 6.61459 l 5.7284,3.30729 -5.7284,3.30729 -5.7284,-3.30729 v -6.61459 l -5.7284,-3.30729 v 6.61459 l -5.7284,3.30729 v -6.61459 -6.61458 l 5.7284,-3.30729 5.7284,3.30729 5.7284,-3.30729 -5.7284,-3.30729 v -6.61459 l 5.7284,3.3073 5.7284,3.30729 v 6.61458 l 5.72839,3.30729 5.7284,-3.30729 -5.7284,-3.30729 v -6.61458 l 5.7284,3.30729 5.7284,3.30729 v 6.61458 l -5.7284,3.30729 v 6.61459 6.61458 l 5.7284,-3.30729 v -6.61458 l 5.7284,3.30729 v 6.61458 l -5.7284,3.30729 v 6.61459 l 5.7284,-3.3073 5.72839,3.3073 -5.72839,3.30729 -5.7284,3.30729 -5.7284,-3.30729 -5.7284,3.30729 v 6.61458 6.61459 l 5.7284,-3.3073 v -6.61458 l 5.7284,3.30729 v 6.61459 l 5.7284,3.30729 5.72839,-3.30729 5.72839,-3.3073 -5.72839,-3.30729 -5.72839,3.30729 v -6.61458 l 5.72839,-3.30729 5.72839,3.30729 5.7284,-3.30729 -5.7284,-3.30729 v -6.61459 l 5.7284,3.3073 5.72839,3.30729 v 6.61458 l -5.72839,3.30729 v 6.61459 l 5.72839,-3.3073 5.7284,3.3073 -5.7284,3.30729 -5.72839,3.30729 -5.7284,-3.30729 -5.72839,3.30729 v 6.61458 l 5.72839,-3.30729 5.7284,3.30729 -5.7284,3.30729 -5.72839,3.3073 -5.72839,-3.3073 v -6.61458 l -5.7284,-3.30729 -5.7284,-3.30729 v 6.61458 l 5.7284,3.30729 -5.7284,3.30729 -5.7284,-3.30729 v -6.61458 l -5.72839,-3.30729 v 6.61458 l -5.7284,3.30729 v -6.61458 -6.61458 l 5.7284,-3.3073 v -6.61458 l -5.7284,-3.30729 -5.7284,-3.30729 v 6.61458 l 5.7284,3.30729 -5.7284,3.30729 -5.7284,-3.30729 v -6.61458 l -5.7284,-3.30729 -5.7284,-3.30729 v 6.61458 l 5.7284,3.30729 -5.7284,3.30729 -5.7284,-3.30729 -5.72839,3.30729 v 6.61459 6.61458 l 5.72839,-3.30729 v -6.61459 l 5.7284,3.3073 v 6.61458 l 5.7284,3.30729 5.7284,-3.30729 -5.7284,-3.30729 v -6.61459 l 5.7284,3.3073 5.7284,3.30729 v 6.61458 l -5.7284,3.30729 v 6.61459 l 5.7284,-3.3073 5.7284,3.3073 -5.7284,3.30729 -5.7284,3.30729 -5.7284,-3.30729 v -6.61459 l -5.7284,-3.30729 -5.7284,-3.30729 v 6.61458 l 5.7284,3.3073 -5.7284,3.30729 -5.72839,-3.30729 -5.7284,3.30729 v 6.61458 l 5.7284,-3.30729 5.72839,3.30729 -5.72839,3.30729 -5.7284,3.30729 -5.7284,-3.30729 -5.7284,3.30729 v 6.61459 6.61458 l 5.7284,-3.30729 v -6.61458 l 5.7284,3.30729 v 6.61458 l 5.7284,3.30729 5.72839,-3.30729 5.7284,-3.30729 -5.7284,-3.30729 -5.72839,3.30729 v -6.61458 l 5.72839,-3.3073 5.7284,3.3073 5.7284,-3.3073 -5.7284,-3.30729 v -6.61458 l 5.7284,3.30729 5.7284,3.30729 v 6.61459 l -5.7284,3.30729 v 6.61458 l 5.7284,-3.30729 5.7284,3.30729 -5.7284,3.30729 -5.7284,3.30729 -5.7284,-3.30729 -5.7284,3.30729 v 6.61459 l 5.7284,-3.30729 5.7284,3.30729 -5.7284,3.30729 -5.7284,3.30729 -5.72839,-3.30729 v -6.61458 l -5.7284,-3.3073 -5.7284,-3.30729 v 6.61459 l 5.7284,3.30729 -5.7284,3.30729 -5.7284,-3.30729 -5.728394,3.30729 v 6.61458 l 5.728394,-3.30729 5.7284,3.30729 -5.7284,3.30729 -5.728394,3.3073 -5.7284,-3.3073 -5.7284,3.3073 v 6.61458 6.61458 l 5.7284,-3.30729 v -6.61458 l 5.7284,3.30729 v 6.61458 l -5.7284,3.30729 v 6.61459 6.61458 l 5.7284,-3.30729 v -6.61458 l 5.728394,3.30729 v 6.61458 l 5.7284,3.30729 5.7284,-3.30729 5.7284,-3.30729 -5.7284,-3.30729 -5.7284,3.30729 v -6.61458 l 5.7284,-3.3073 v -6.61458 l -5.7284,-3.30729 v 6.61458 l -5.7284,3.30729 v -6.61458 -6.61458 l 5.7284,-3.30729 5.7284,3.30729 5.7284,-3.30729 -5.7284,-3.3073 v -6.61458 l 5.7284,3.30729 5.72839,3.30729 v 6.61459 l -5.72839,3.30729 v 6.61458 6.61459 l 5.72839,-3.3073 v -6.61458 l 5.7284,3.30729 v 6.61459 l -5.7284,3.30729 v 6.61458 l 5.7284,-3.30729 5.7284,3.30729 -5.7284,3.30729 -5.7284,3.30729 -5.72839,-3.30729 -5.7284,3.30729 v 6.61459 6.61458 l 5.7284,-3.30729 v -6.61458 l 5.72839,3.30729 v 6.61458 l -5.72839,3.30729 v 6.61459 6.61458 l 5.72839,-3.30729 v -6.61459 l 5.7284,3.3073 v 6.61458 l 5.7284,3.30729 5.7284,-3.30729 5.7284,-3.30729 -5.7284,-3.30729 -5.7284,3.30729 v -6.61459 l 5.7284,-3.30729 v -6.61458 l -5.7284,-3.30729 v 6.61458 l -5.7284,3.30729 v -6.61458 -6.61458 l 5.7284,-3.3073 5.7284,3.3073 5.7284,-3.3073 -5.7284,-3.30729 v -6.61458 l 5.7284,3.30729 5.7284,3.30729 v 6.61459 l -5.7284,3.30729 v 6.61458 6.61458 l 5.7284,-3.30729 v -6.61458 l 5.7284,3.30729 v 6.61458 l 5.72839,3.3073 5.7284,-3.3073 -5.7284,-3.30729 v -6.61458 l 5.7284,3.30729 5.7284,3.30729 v 6.61459 l 5.7284,3.30729 5.72839,-3.30729 5.72839,-3.3073 -5.72839,-3.30729 -5.72839,3.30729 v -6.61458 l 5.72839,-3.30729 5.72839,3.30729 5.7284,-3.30729 5.72839,-3.30729 -5.72839,-3.30729 -5.7284,3.30729 v -6.61459 l 5.7284,-3.30729 v -6.61458 l -5.7284,-3.30729 -5.72839,-3.30729 v 6.61458 l 5.72839,3.30729 -5.72839,3.30729 -5.72839,-3.30729 -5.7284,3.30729 v 6.61459 l 5.7284,-3.3073 5.72839,3.3073 -5.72839,3.30729 -5.7284,3.30729 -5.7284,-3.30729 v -6.61459 l -5.7284,-3.30729 v 6.61459 l -5.72839,3.30729 v -6.61459 -6.61458 l 5.72839,-3.30729 5.7284,3.30729 5.7284,-3.30729 5.7284,-3.30729 -5.7284,-3.30729 -5.7284,3.30729 v -6.61459 l 5.7284,-3.30729 v -6.61458 l -5.7284,-3.30729 v 6.61458 l -5.7284,3.30729 v -6.61458 -6.61458 l 5.7284,-3.3073 v -6.61458 l -5.7284,-3.30729 -5.72839,-3.30729 v 6.61458 l 5.72839,3.30729 -5.72839,3.30729 -5.7284,-3.30729 -5.7284,3.30729 v 6.61459 6.61458 l 5.7284,-3.30729 v -6.61458 l 5.7284,3.30729 v 6.61458 l -5.7284,3.30729 v 6.61459 l 5.7284,-3.3073 5.72839,3.3073 -5.72839,3.30729 -5.7284,3.30729 -5.7284,-3.30729 v -6.61459 l -5.7284,-3.30729 v 6.61459 l -5.7284,3.30729 v -6.61459 -6.61458 l 5.7284,-3.30729 v -6.61458 l -5.7284,-3.3073 v 6.61459 l -5.7284,3.30729 v -6.61458 -6.61459 l 5.7284,-3.30729 5.7284,3.30729 5.7284,-3.30729 5.7284,-3.30729 -5.7284,-3.30729 -5.7284,3.30729 v -6.61458 l 5.7284,-3.3073 5.7284,3.3073 5.7284,-3.3073 -5.7284,-3.30729 v -6.61458 l 5.7284,3.30729 5.72839,3.30729 v 6.61459 l 5.7284,3.30729 5.7284,-3.30729 5.7284,-3.3073 -5.7284,-3.30729 -5.7284,3.30729 v -6.61458 l 5.7284,-3.30729 v -6.61458 l -5.7284,-3.3073 -5.7284,-3.30729 v 6.61459 l 5.7284,3.30729 -5.7284,3.30729 -5.72839,-3.30729 v -6.61459 l -5.7284,-3.30729 v 6.61459 l -5.7284,3.30729 v -6.61459 -6.61458 l 5.7284,-3.30729 5.7284,3.30729 5.72839,-3.30729 -5.72839,-3.30729 v -6.61459 l 5.72839,3.3073 5.7284,3.30729 v 6.61458 l 5.7284,3.30729 5.7284,-3.30729 -5.7284,-3.30729 v -6.61458 l 5.7284,3.30729 5.72839,3.30729 v 6.61458 l -5.72839,3.30729 v 6.61459 6.61458 l 5.72839,-3.30729 v -6.61458 l 5.72839,3.30729 v 6.61458 l -5.72839,3.30729 v 6.61459 l 5.72839,-3.3073 5.7284,3.3073 -5.7284,3.30729 -5.72839,3.30729 -5.72839,-3.30729 -5.7284,3.30729 v 6.61458 6.61459 l 5.7284,-3.3073 v -6.61458 l 5.72839,3.30729 v 6.61459 l -5.72839,3.30729 v 6.61458 6.61458 l 5.72839,-3.30729 v -6.61458 l 5.72839,3.30729 v 6.61458 l 5.7284,3.3073 5.72839,-3.3073 5.7284,-3.30729 -5.7284,-3.30729 -5.72839,3.30729 v -6.61458 l 5.72839,-3.30729 v -6.61459 l -5.72839,-3.30729 v 6.61459 l -5.7284,3.30729 v -6.61459 -6.61458 l 5.7284,-3.30729 5.72839,3.30729 5.7284,-3.30729 -5.7284,-3.30729 v -6.61459 l 5.7284,3.3073 5.72841,3.30729 v 6.61458 l -5.72841,3.30729 v 6.61459 6.61458 l 5.72841,-3.30729 v -6.61459 l 5.7284,3.3073 v 6.61458 l -5.7284,3.30729 v 6.61458 l 5.7284,-3.30729 5.72839,3.30729 -5.72839,3.3073 -5.7284,3.30729 -5.72841,-3.30729 -5.7284,3.30729 v 6.61458 6.61458 l 5.7284,-3.30729 v -6.61458 l 5.72841,3.30729 v 6.61458 l 5.7284,3.3073 5.72839,-3.3073 5.7284,-3.30729 -5.7284,-3.30729 -5.72839,3.30729 v -6.61458 l 5.72839,-3.30729 5.7284,3.30729 5.7284,-3.30729 -5.7284,-3.30729 v -6.61459 l 5.7284,3.30729 5.7284,3.3073 v 6.61458 l -5.7284,3.30729 v 6.61458 l 5.7284,-3.30729 5.72839,3.30729 -5.72839,3.3073 -5.7284,3.30729 -5.7284,-3.30729 -5.7284,3.30729 v 6.61458 l 5.7284,-3.30729 5.7284,3.30729 -5.7284,3.30729 -5.7284,3.30729 -5.72839,-3.30729 v -6.61458 l -5.7284,-3.30729 -5.72841,-3.30729 v 6.61458 l 5.72841,3.30729 -5.72841,3.30729 -5.7284,-3.30729 -5.72839,3.30729 v 6.61459 l 5.72839,-3.3073 5.7284,3.3073 -5.7284,3.30729 -5.72839,3.30729 -5.7284,-3.30729 -5.72839,3.30729 v 6.61458 6.61459 l 5.72839,-3.3073 v -6.61458 l 5.7284,3.30729 v 6.61459 l -5.7284,3.30729 v 6.61458 6.61458 l 5.7284,-3.30729 v -6.61458 l 5.72839,3.30729 v 6.61458 l 5.7284,3.3073 5.72841,-3.3073 5.7284,-3.30729 -5.7284,-3.30729 -5.72841,3.30729 v -6.61458 l 5.72841,-3.30729 v -6.61459 l -5.72841,-3.30729 v 6.61459 l -5.7284,3.30729 v -6.61459 -6.61458 l 5.7284,-3.30729 5.72841,3.30729 5.7284,-3.30729 -5.7284,-3.30729 v -6.61459 l 5.7284,3.3073 5.72839,3.30729 v 6.61458 l -5.72839,3.30729 v 6.61459 6.61458 l 5.72839,-3.30729 v -6.61459 l 5.7284,3.3073 v 6.61458 l 5.7284,3.30729 5.7284,-3.30729 -5.7284,-3.30729 v -6.61459 l 5.7284,3.3073 5.72839,3.30729 v 6.61458 l 5.7284,3.30729 5.7284,-3.30729 5.72839,-3.30729 -5.72839,-3.30729 -5.7284,3.30729 v -6.61458 l 5.7284,-3.3073 5.72839,3.3073 5.7284,-3.3073 5.7284,-3.30729 -5.7284,-3.30729 -5.7284,3.30729 v -6.61458 l 5.7284,-3.30729 v -6.61459 l -5.7284,-3.30729 -5.72839,-3.30729 v 6.61458 l 5.72839,3.3073 -5.72839,3.30729 -5.7284,-3.30729 -5.7284,3.30729 v 6.61458 l 5.7284,-3.30729 5.7284,3.30729 -5.7284,3.30729 -5.7284,3.30729 -5.72839,-3.30729 v -6.61458 l -5.7284,-3.30729 v 6.61458 l -5.7284,3.30729 v -6.61458 -6.61458 l 5.7284,-3.3073 5.7284,3.3073 5.72839,-3.3073 5.7284,-3.30729 -5.7284,-3.30729 -5.72839,3.30729 v -6.61458 l 5.72839,-3.30729 5.7284,3.30729 5.7284,-3.30729 -5.7284,-3.30729 v -6.61459 l 5.7284,3.30729 5.72839,3.3073 v 6.61458 l 5.7284,3.30729 5.7284,-3.30729 5.7284,-3.30729 -5.7284,-3.30729 -5.7284,3.30729 v -6.61459 l 5.7284,-3.30729 v -6.61458 l -5.7284,-3.30729 -5.7284,-3.30729 v 6.61458 l 5.7284,3.30729 -5.7284,3.30729 -5.72839,-3.30729 v -6.61458 l -5.7284,-3.30729 v 6.61458 l -5.7284,3.30729 v -6.61458 -6.61459 l 5.7284,-3.30729 5.7284,3.30729 5.72839,-3.30729 -5.72839,-3.30729 v -6.61458 l 5.72839,3.30729 5.7284,3.30729 v 6.61458 l 5.7284,3.3073 5.7284,-3.3073 -5.7284,-3.30729 v -6.61458 l 5.7284,3.30729 5.72839,3.30729 v 6.61459 l -5.72839,3.30729 v 6.61458 6.61458 l 5.72839,-3.30729 v -6.61458 l 5.7284,3.30729 v 6.61458 l -5.7284,3.3073 v 6.61458 l 5.7284,-3.30729 5.7284,3.30729 -5.7284,3.30729 -5.7284,3.30729 -5.72839,-3.30729 -5.7284,3.30729 v 6.61459 6.61458 l 5.7284,-3.30729 v -6.61459 l 5.72839,3.3073 v 6.61458 l 5.7284,3.30729 5.7284,-3.30729 5.72839,-3.30729 -5.72839,-3.30729 -5.7284,3.30729 v -6.61459 l 5.7284,-3.30729 5.72839,3.30729 5.7284,-3.30729 -5.7284,-3.30729 v -6.61458 l 5.7284,3.30729 5.7284,3.30729 v 6.61458 l -5.7284,3.3073 v 6.61458 l 5.7284,-3.30729 5.7284,3.30729 -5.7284,3.30729 -5.7284,3.30729 -5.7284,-3.30729 -5.72839,3.30729 v 6.61459 l 5.72839,-3.3073 5.7284,3.3073 -5.7284,3.30729 -5.72839,3.30729 -5.7284,-3.30729 v -6.61459 l -5.7284,-3.30729 -5.72839,-3.30729 v 6.61458 l 5.72839,3.3073 -5.72839,3.30729 -5.7284,-3.30729 -5.7284,3.30729 v 6.61458 l 5.7284,-3.30729 5.7284,3.30729 -5.7284,3.30729 -5.7284,3.30729 -5.7284,-3.30729 -5.72839,3.30729 v 6.61459 6.61458 l 5.72839,-3.30729 v -6.61458 l 5.7284,3.30729 v 6.61458 l 5.7284,3.30729 5.7284,-3.30729 5.72839,-3.30729 -5.72839,-3.30729 -5.7284,3.30729 v -6.61458 l 5.7284,-3.3073 5.72839,3.3073 5.7284,-3.3073 -5.7284,-3.30729 v -6.61458 l 5.7284,3.30729 5.7284,3.30729 v 6.61459 l -5.7284,3.30729 v 6.61458 l 5.7284,-3.30729 5.72839,3.30729 -5.72839,3.30729 -5.7284,3.30729 -5.7284,-3.30729 -5.72839,3.30729 v 6.61459 l 5.72839,-3.30729 5.7284,3.30729 -5.7284,3.30729 -5.72839,3.30729 -5.7284,-3.30729 v -6.61458 l -5.7284,-3.3073 -5.7284,-3.30729 v 6.61459 l 5.7284,3.30729 -5.7284,3.30729 -5.72839,-3.30729 v -6.61459 l -5.7284,-3.30729 v 6.61459 l -5.7284,3.30729 v -6.61459 -6.61458 l 5.7284,-3.30729 v -6.61458 l -5.7284,-3.3073 -5.72839,-3.30729 v 6.61459 l 5.72839,3.30729 -5.72839,3.30729 -5.7284,-3.30729 v -6.61459 l -5.7284,-3.30729 -5.7284,-3.30729 v 6.61458 l 5.7284,3.3073 -5.7284,3.30729 -5.72839,-3.30729 -5.7284,3.30729 v 6.61458 6.61458 l 5.7284,-3.30729 v -6.61458 l 5.72839,3.30729 v 6.61458 l 5.7284,3.3073 5.7284,-3.3073 -5.7284,-3.30729 v -6.61458 l 5.7284,3.30729 5.7284,3.30729 v 6.61459 l -5.7284,3.30729 v 6.61458 l 5.7284,-3.30729 5.72839,3.30729 -5.72839,3.30729 -5.7284,3.30729 -5.7284,-3.30729 v -6.61458 l -5.7284,-3.30729 -5.72839,-3.30729 v 6.61458 l 5.72839,3.30729 -5.72839,3.30729 -5.7284,-3.30729 v -6.61458 l -5.72841,-3.30729 v 6.61458 l -5.7284,3.30729 v -6.61458 -6.61459 l 5.7284,-3.30729 v -6.61458 l -5.7284,-3.30729 -5.72839,-3.30729 v 6.61458 l 5.72839,3.30729 -5.72839,3.30729 -5.7284,-3.30729 -5.72839,3.30729 v 6.61459 6.61458 l 5.72839,-3.30729 v -6.61459 l 5.7284,3.3073 v 6.61458 l -5.7284,3.30729 v 6.61458 l 5.7284,-3.30729 5.72839,3.30729 -5.72839,3.3073 -5.7284,3.30729 -5.72839,-3.30729 v -6.61459 l -5.72839,-3.30729 v 6.61458 l -5.7284,3.3073 v -6.61459 -6.61458 l 5.7284,-3.30729 v -6.61459 l -5.7284,-3.30729 v 6.61459 l -5.7284,3.30729 v -6.61459 -6.61458 l 5.7284,-3.30729 5.7284,3.30729 5.72839,-3.30729 5.72839,-3.30729 -5.72839,-3.30729 -5.72839,3.30729 v -6.61459 l 5.72839,-3.30729 v -6.61458 l -5.72839,-3.30729 v 6.61458 l -5.7284,3.30729 v -6.61458 -6.61458 l 5.7284,-3.3073 v -6.61458 l -5.7284,-3.30729 -5.7284,-3.30729 v 6.61458 l 5.7284,3.30729 -5.7284,3.30729 -5.7284,-3.30729 v -6.61458 l -5.72839,-3.30729 -5.7284,-3.30729 v 6.61458 l 5.7284,3.30729 -5.7284,3.30729 -5.7284,-3.30729 -5.7284,3.30729 v 6.61459 6.61458 l 5.7284,-3.30729 v -6.61459 l 5.7284,3.3073 v 6.61458 l 5.7284,3.30729 5.72839,-3.30729 -5.72839,-3.30729 v -6.61459 l 5.72839,3.3073 5.7284,3.30729 v 6.61458 l -5.7284,3.30729 v 6.61459 l 5.7284,-3.3073 5.7284,3.3073 -5.7284,3.30729 -5.7284,3.30729 -5.72839,-3.30729 v -6.61459 l -5.7284,-3.30729 -5.7284,-3.30729 v 6.61458 l 5.7284,3.3073 -5.7284,3.30729 -5.7284,-3.30729 -5.7284,3.30729 v 6.61458 l 5.7284,-3.30729 5.7284,3.30729 -5.7284,3.30729 -5.7284,3.30729 -5.7284,-3.30729 -5.7284,3.30729 v 6.61459 6.61458 l 5.7284,-3.30729 v -6.61458 l 5.7284,3.30729 v 6.61458 l -5.7284,3.30729 v 6.61459 6.61458 l 5.7284,-3.30729 v -6.61459 l 5.7284,3.3073 v 6.61458 l 5.7284,3.30729 5.7284,-3.30729 5.7284,-3.30729 -5.7284,-3.30729 -5.7284,3.30729 v -6.61459 l 5.7284,-3.30729 v -6.61458 l -5.7284,-3.30729 v 6.61458 l -5.7284,3.30729 v -6.61458 -6.61458 l 5.7284,-3.3073 5.7284,3.3073 5.7284,-3.3073 -5.7284,-3.30729 v -6.61458 l 5.7284,3.30729 5.72839,3.30729 v 6.61459 l -5.72839,3.30729 v 6.61458 6.61458 l 5.72839,-3.30729 v -6.61458 l 5.7284,3.30729 v 6.61458 l -5.7284,3.3073 v 6.61458 l 5.7284,-3.30729 5.7284,3.30729 -5.7284,3.30729 -5.7284,3.30729 -5.72839,-3.30729 -5.7284,3.30729 v 6.61459 6.61458 l 5.7284,-3.30729 v -6.61459 l 5.72839,3.3073 v 6.61458 l 5.7284,3.30729 5.7284,-3.30729 5.7284,-3.30729 -5.7284,-3.30729 -5.7284,3.30729 v -6.61459 l 5.7284,-3.30729 5.7284,3.30729 5.72839,-3.30729 -5.72839,-3.30729 v -6.61458 l 5.72839,3.30729 5.72839,3.30729 v 6.61458 l -5.72839,3.3073 v 6.61458 l 5.72839,-3.30729 5.7284,3.30729 -5.7284,3.30729 -5.72839,3.30729 -5.72839,-3.30729 -5.7284,3.30729 v 6.61459 l 5.7284,-3.3073 5.72839,3.3073 -5.72839,3.30729 -5.7284,3.30729 -5.7284,-3.30729 v -6.61459 l -5.7284,-3.30729 -5.72839,-3.30729 v 6.61458 l 5.72839,3.3073 -5.72839,3.30729 -5.7284,-3.30729 v -6.61459 l -5.7284,-3.30729 v 6.61458 l -5.7284,3.3073 v -6.61459 -6.61458 l 5.7284,-3.30729 v -6.61459 l -5.7284,-3.30729 -5.7284,-3.30729 v 6.61458 l 5.7284,3.3073 -5.7284,3.30729 -5.7284,-3.30729 -5.7284,3.30729 v 6.61458 6.61458 l 5.7284,-3.30729 v -6.61458 l 5.7284,3.30729 v 6.61458 l -5.7284,3.3073 v 6.61458 l 5.7284,-3.30729 5.7284,3.30729 -5.7284,3.30729 -5.7284,3.30729 -5.7284,-3.30729 v -6.61458 l -5.72839,-3.30729 v 6.61458 l -5.7284,3.30729 v -6.61458 -6.61459 l 5.7284,-3.30729 v -6.61458 l -5.7284,-3.30729 v 6.61458 l -5.7284,3.30729 v -6.61458 -6.61458 l 5.7284,-3.3073 5.7284,3.3073 5.72839,-3.3073 5.7284,-3.30729 -5.7284,-3.30729 -5.72839,3.30729 v -6.61458 l 5.72839,-3.30729 v -6.61459 l -5.72839,-3.30729 v 6.61459 l -5.7284,3.30729 v -6.61459 -6.61458 l 5.7284,-3.30729 v -6.61458 l -5.7284,-3.3073 -5.7284,-3.30729 v 6.61459 l 5.7284,3.30729 -5.7284,3.30729 -5.7284,-3.30729 -5.728394,3.30729 v 6.61458 6.61459 l 5.728394,-3.3073 v -6.61458 l 5.7284,3.30729 v 6.61459 l -5.7284,3.30729 v 6.61458 l 5.7284,-3.30729 5.7284,3.30729 -5.7284,3.30729 -5.7284,3.30729 -5.728394,-3.30729 v -6.61458 l -5.7284,-3.30729 v 6.61458 l -5.7284,3.30729 v -6.61458 -6.61458 l 5.7284,-3.3073 v -6.61458 l -5.7284,-3.30729 v 6.61458 l -5.72839,3.30729 v -6.61458 -6.61458 l 5.72839,-3.30729 5.7284,3.30729 5.7284,-3.30729 5.728394,-3.3073 -5.728394,-3.30729 -5.7284,3.30729 v -6.61458 l 5.7284,-3.30729 5.728394,3.30729 5.7284,-3.30729 -5.7284,-3.30729 v -6.61459 l 5.7284,3.3073 5.7284,3.30729 v 6.61458 l 5.7284,3.30729 5.72839,-3.30729 5.7284,-3.30729 -5.7284,-3.30729 -5.72839,3.30729 v -6.61458 l 5.72839,-3.3073 5.7284,3.3073 5.7284,-3.3073 5.7284,-3.30729 -5.7284,-3.30729 -5.7284,3.30729 v -6.61458 l 5.7284,-3.30729 v -6.61459 l -5.7284,-3.30729 -5.7284,-3.30729 v 6.61458 l 5.7284,3.3073 -5.7284,3.30729 -5.72839,-3.30729 -5.7284,3.30729 v 6.61458 l 5.7284,-3.30729 5.72839,3.30729 -5.72839,3.30729 -5.7284,3.30729 -5.7284,-3.30729 v -6.61458 l -5.7284,-3.30729 v 6.61458 l -5.728394,3.30729 v -6.61458 -6.61458 l 5.728394,-3.3073 5.7284,3.3073 5.7284,-3.3073 5.7284,-3.30729 -5.7284,-3.30729 -5.7284,3.30729 v -6.61458 l 5.7284,-3.30729 v -6.61459 l -5.7284,-3.30729 v 6.61459 l -5.7284,3.30729 v -6.61459 -6.61458 l 5.7284,-3.30729 v -6.61458 l -5.7284,-3.3073 -5.728394,-3.30729 v 6.61459 l 5.728394,3.30729 -5.728394,3.30729 -5.7284,-3.30729 -5.7284,3.30729 v 6.61458 6.61459 l 5.7284,-3.3073 v -6.61458 l 5.7284,3.30729 v 6.61459 l -5.7284,3.30729 v 6.61458 l 5.7284,-3.30729 5.728394,3.30729 -5.728394,3.30729 -5.7284,3.30729 -5.7284,-3.30729 v -6.61458 l -5.72839,-3.30729 v 6.61458 l -5.7284,3.30729 v -6.61458 -6.61458 l 5.7284,-3.3073 v -6.61458 l -5.7284,-3.30729 v 6.61458 l -5.7284,3.30729 v -6.61458 -6.61458 l 5.7284,-3.30729 5.7284,3.30729 5.72839,-3.30729 5.7284,-3.3073 -5.7284,-3.30729 -5.72839,3.30729 v -6.61458 l 5.72839,-3.30729 v -6.61458 l -5.72839,-3.3073 v 6.61459 l -5.7284,3.30729 v -6.61458 -6.61459 l 5.7284,-3.30729 v -6.61458 l -5.7284,-3.30729 -5.7284,-3.3073 v 6.61459 l 5.7284,3.30729 -5.7284,3.30729 -5.7284,-3.30729 v -6.61458 l -5.72839,-3.3073 -5.7284,-3.30729 v 6.61459 l 5.7284,3.30729 -5.7284,3.30729 -5.7284,-3.30729 -5.72839,3.30729 v 6.61458 6.61459 l 5.72839,-3.3073 v -6.61458 l 5.7284,3.30729 v 6.61459 l 5.7284,3.30729 5.72839,-3.30729 -5.72839,-3.3073 v -6.61458 l 5.72839,3.30729 5.7284,3.30729 v 6.61459 l -5.7284,3.30729 v 6.61458 l 5.7284,-3.30729 5.7284,3.30729 -5.7284,3.30729 -5.7284,3.3073 -5.72839,-3.3073 v -6.61458 l -5.7284,-3.30729 -5.7284,-3.30729 v 6.61458 l 5.7284,3.30729 -5.7284,3.30729 -5.72839,-3.30729 -5.7284,3.30729 v 6.61459 l 5.7284,-3.30729 5.72839,3.30729 -5.72839,3.30729 -5.7284,3.30729 -5.7284,-3.30729 -5.7284,3.30729 v 6.61458 6.61459 l 5.7284,-3.30729 v -6.61459 l 5.7284,3.30729 v 6.61459 l -5.7284,3.30729 v 6.61458 6.61459 l 5.7284,-3.3073 v -6.61458 l 5.7284,3.30729 v 6.61459 l 5.72839,3.30729 5.7284,-3.30729 5.7284,-3.3073 -5.7284,-3.30729 -5.7284,3.30729 v -6.61458 l 5.7284,-3.30729 v -6.61458 l -5.7284,-3.3073 v 6.61459 l -5.72839,3.30729 v -6.61458 -6.61459 l 5.72839,-3.30729 5.7284,3.30729 5.7284,-3.30729 -5.7284,-3.30729 v -6.61458 l 5.7284,3.30729 5.72839,3.30729 v 6.61458 l -5.72839,3.30729 v 6.61459 6.61458 l 5.72839,-3.30729 v -6.61458 l 5.7284,3.30729 v 6.61458 l -5.7284,3.30729 v 6.61459 l 5.7284,-3.3073 5.7284,3.3073 -5.7284,3.30729 -5.7284,3.30729 -5.72839,-3.30729 -5.7284,3.30729 v 6.61458 6.61459 l 5.7284,-3.3073 v -6.61458 l 5.72839,3.30729 v 6.61459 l 5.7284,3.30729 5.7284,-3.30729 5.7284,-3.3073 -5.7284,-3.30729 -5.7284,3.30729 v -6.61458 l 5.7284,-3.30729 5.7284,3.30729 5.72839,-3.30729 -5.72839,-3.30729 v -6.61459 l 5.72839,3.3073 5.7284,3.30729 v 6.61458 l -5.7284,3.30729 v 6.61459 l 5.7284,-3.3073 5.7284,3.3073 -5.7284,3.30729 -5.7284,3.30729 -5.72839,-3.30729 -5.7284,3.30729 v 6.61458 l 5.7284,-3.30729 5.72839,3.30729 -5.72839,3.30729 -5.7284,3.3073 -5.7284,-3.3073 v -6.61458 l -5.7284,-3.30729 -5.72839,-3.30729 v 6.61458 l 5.72839,3.30729 -5.72839,3.30729 -5.7284,-3.30729 v -6.61458 l -5.7284,-3.30729 v 6.61458 l -5.72839,3.30729 v -6.61458 -6.61458 l 5.72839,-3.3073 v -6.61458 l -5.72839,-3.30729 -5.7284,-3.30729 v 6.61458 l 5.7284,3.30729 -5.7284,3.30729 -5.7284,-3.30729 -5.7284,3.30729 v 6.61459 6.61458 l 5.7284,-3.30729 v -6.61458 l 5.7284,3.30729 v 6.61458 l -5.7284,3.30729 v 6.61459 l 5.7284,-3.3073 5.7284,3.3073 -5.7284,3.30729 -5.7284,3.30729 -5.7284,-3.30729 v -6.61459 l -5.72839,-3.30729 v 6.61459 l -5.7284,3.30729 v -6.61459 -6.61458 l 5.7284,-3.30729 v -6.61458 l -5.7284,-3.3073 v 6.61459 l -5.7283996,3.30729 v -6.61458 -6.61459 l 5.7283996,-3.30729 5.7284,3.30729 5.72839,-3.30729 5.7284,-3.30729 -5.7284,-3.30729 -5.72839,3.30729 v -6.61458 l 5.72839,-3.3073 v -6.61458 l -5.72839,-3.30729 v 6.61458 l -5.7284,3.30729 v -6.61458 -6.61458 l 5.7284,-3.30729 v -6.61459 l -5.7284,-3.30729 -5.7283996,-3.30729 v 6.61458 l 5.7283996,3.30729 -5.7283996,3.3073 -5.7284,-3.3073 -5.72839,3.3073 v 6.61458 6.61458 l 5.72839,-3.30729 v -6.61458 l 5.7284,3.30729 v 6.61458 l -5.7284,3.30729 v 6.61459 l 5.7284,-3.30729 5.7283996,3.30729 -5.7283996,3.30729 -5.7284,3.30729 -5.72839,-3.30729 v -6.61458 l -5.7284,-3.3073 v 6.61459 l -5.7284004,3.30729 v -6.61458 -6.61459 l 5.7284004,-3.30729 v -6.61458 l -5.7284004,-3.30729 v 6.61458 l -5.72839,3.30729 v -6.61458 -6.61459 l 5.72839,-3.30729 5.7284004,3.30729 5.7284,-3.30729 5.72839,-3.30729 -5.72839,-3.30729 -5.7284,3.30729 v -6.61458 l 5.7284,-3.30729 5.72839,3.30729 5.7284,-3.30729 -5.7284,-3.3073 v -6.61458 l 5.7284,3.30729 5.7283996,3.30729 v 6.61459 l 5.7284,3.30729 5.72839,-3.30729 5.7284,-3.30729 -5.7284,-3.3073 -5.72839,3.3073 v -6.61459 l 5.72839,-3.30729 5.7284,3.30729 5.7284,-3.30729 5.7284,-3.30729 -5.7284,-3.30729 -5.7284,3.30729 v -6.61458 l 5.7284,-3.3073 v -6.61458 l -5.7284,-3.30729 -5.7284,-3.30729 v 6.61458 l 5.7284,3.30729 -5.7284,3.30729 -5.72839,-3.30729 -5.7284,3.30729 v 6.61459 l 5.7284,-3.30729 5.72839,3.30729 -5.72839,3.30729 -5.7284,3.30729 -5.7283996,-3.30729 v -6.61458 l -5.7284,-3.3073 v 6.61459 l -5.72839,3.30729 v -6.61458 -6.61459 l 5.72839,-3.30729 5.7284,3.30729 5.7283996,-3.30729 5.7284,-3.30729 -5.7284,-3.30729 -5.7283996,3.30729 v -6.61458 l 5.7283996,-3.3073 5.7284,3.3073 5.72839,-3.3073 -5.72839,-3.30729 v -6.61458 l 5.72839,3.30729 5.7284,3.30729 v 6.61459 l 5.7284,3.30729 5.7284,-3.30729 5.72839,-3.3073 -5.72839,-3.30729 -5.7284,3.30729 v -6.61458 l 5.7284,-3.30729 v -6.61458 l -5.7284,-3.3073 -5.7284,-3.30729 v 6.61459 l 5.7284,3.30729 -5.7284,3.30729 -5.7284,-3.30729 v -6.61459 l -5.72839,-3.30729 v 6.61459 l -5.7284,3.30729 v -6.61459 -6.61458 l 5.7284,-3.30729 5.72839,3.30729 5.7284,-3.30729 -5.7284,-3.30729 v -6.61459 l 5.7284,3.3073 5.7284,3.30729 v 6.61458 l 5.7284,3.30729 5.72839,-3.30729 -5.72839,-3.30729 v -6.61458 l 5.72839,3.30729 5.7284,3.30729 v 6.61458 l -5.7284,3.30729 v 6.61459 6.61458 l 5.7284,-3.30729 v -6.61458 l 5.7284,3.30729 v 6.61458 l 5.72839,3.30729 5.7284,-3.30729 -5.7284,-3.30729 v -6.61458 l 5.7284,3.30729 5.7284,3.30729 v 6.61458 l 5.7284,3.30729 5.72839,-3.30729 5.7284,-3.30729 -5.7284,-3.30729 -5.72839,3.30729 v -6.61458 l 5.72839,-3.30729 5.7284,3.30729 5.7284,-3.30729 5.728394,-3.3073 -5.728394,-3.30729 -5.7284,3.30729 v -6.61458 l 5.7284,-3.30729 v -6.61458 l -5.7284,-3.3073 -5.7284,-3.30729 v 6.61459 l 5.7284,3.30729 -5.7284,3.30729 -5.72839,-3.30729 -5.7284,3.30729 v 6.61458 l 5.7284,-3.30729 5.72839,3.30729 -5.72839,3.30729 -5.7284,3.3073 -5.7284,-3.3073 v -6.61458 l -5.7284,-3.30729 v 6.61458 l -5.72839,3.30729 v -6.61458 -6.61458 l 5.72839,-3.30729 5.7284,3.30729 5.7284,-3.30729 5.7284,-3.3073 -5.7284,-3.30729 -5.7284,3.30729 v -6.61458 l 5.7284,-3.30729 5.7284,3.30729 5.72839,-3.30729 -5.72839,-3.30729 v -6.61459 l 5.72839,3.3073 5.7284,3.30729 v 6.61458 l 5.7284,3.30729 5.728394,-3.30729 5.7284,-3.30729 -5.7284,-3.30729 -5.728394,3.30729 v -6.61458 l 5.728394,-3.3073 5.7284,3.3073 5.7284,-3.3073 5.7284,-3.30729 -5.7284,-3.30729 -5.7284,3.30729 v -6.61458 l 5.7284,-3.30729 v -6.61459 l -5.7284,-3.30729 -5.7284,-3.30729 v 6.61458 l 5.7284,3.3073 -5.7284,3.30729 -5.728394,-3.30729 -5.7284,3.30729 v 6.61458 l 5.7284,-3.30729 5.728394,3.30729 -5.728394,3.30729 -5.7284,3.30729 -5.7284,-3.30729 v -6.61458 l -5.72839,-3.30729 v 6.61458 l -5.7284,3.30729 v -6.61458 -6.61458 l 5.7284,-3.3073 5.72839,3.3073 5.7284,-3.3073 5.7284,-3.30729 -5.7284,-3.30729 -5.7284,3.30729 v -6.61458 l 5.7284,-3.30729 v -6.61459 l -5.7284,-3.30729 v 6.61459 l -5.72839,3.30729 v -6.61459 -6.61458 l 5.72839,-3.30729 v -6.61458 l -5.72839,-3.3073 -5.7284,-3.30729 v 6.61459 l 5.7284,3.30729 -5.7284,3.30729 -5.7284,-3.30729 v -6.61459 l -5.7284,-3.30729 -5.72839,-3.30729 v 6.61458 l 5.72839,3.3073 -5.72839,3.30729 -5.7284,-3.30729 -5.7284,3.30729 v 6.61458 6.61458 l 5.7284,-3.30729 v -6.61458 l 5.7284,3.30729 v 6.61458 l 5.72839,3.3073 5.7284,-3.3073 -5.7284,-3.30729 v -6.61458 l 5.7284,3.30729 5.7284,3.30729 v 6.61459 l -5.7284,3.30729 v 6.61458 l 5.7284,-3.30729 5.7284,3.30729 -5.7284,3.30729 -5.7284,3.30729 -5.7284,-3.30729 v -6.61458 l -5.72839,-3.30729 -5.7284,-3.30729 v 6.61458 l 5.7284,3.30729 -5.7284,3.30729 -5.7284,-3.30729 -5.72839,3.30729 v 6.61459 l 5.72839,-3.3073 5.7284,3.3073 -5.7284,3.30729 -5.72839,3.30729 -5.7284,-3.30729 -5.7284,3.30729 v 6.61458 6.61459 l 5.7284,-3.3073 v -6.61458 l 5.7284,3.30729 v 6.61459 l 5.72839,3.30729 5.7284,-3.30729 5.7284,-3.3073 -5.7284,-3.30729 -5.7284,3.30729 v -6.61458 l 5.7284,-3.30729 5.7284,3.30729 5.72839,-3.30729 -5.72839,-3.30729 v -6.61459 l 5.72839,3.3073 5.7284,3.30729 v 6.61458 l -5.7284,3.30729 v 6.61459 l 5.7284,-3.3073 5.7284,3.3073 -5.7284,3.30729 -5.7284,3.30729 -5.72839,-3.30729 -5.7284,3.30729 v 6.61458 l 5.7284,-3.30729 5.72839,3.30729 -5.72839,3.30729 -5.7284,3.3073 -5.7284,-3.3073 v -6.61458 l -5.72839,-3.30729 -5.7284,-3.30729 v 6.61458 l 5.7284,3.30729 -5.7284,3.30729 -5.7284,-3.30729 v -6.61458 l -5.7284,-3.30729 v 6.61458 l -5.72839,3.30729 v -6.61458 -6.61458 l 5.72839,-3.3073 v -6.61458 l -5.72839,-3.30729 -5.7284,-3.30729 v 6.61458 l 5.7284,3.30729 -5.7284,3.30729 -5.7283996,-3.30729 -5.7284,3.30729 v 6.61459 6.61458 l 5.7284,-3.30729 v -6.61458 l 5.7283996,3.30729 v 6.61458 l -5.7283996,3.30729 v 6.61459 l 5.7283996,-3.3073 5.7284,3.3073 -5.7284,3.30729 -5.7283996,3.30729 -5.7284,-3.30729 v -6.61459 l -5.72839,-3.30729 v 6.61459 l -5.7284,3.30729 v -6.61459 -6.61458 l 5.7284,-3.30729 v -6.61458 l -5.7284,-3.3073 v 6.61459 l -5.7284004,3.30729 v -6.61458 -6.61459 l 5.7284004,-3.30729 5.7284,3.30729 5.72839,-3.30729 5.7284,-3.30729 -5.7284,-3.30729 -5.72839,3.30729 v -6.61458 l 5.72839,-3.3073 5.7284,3.3073 5.7283996,-3.3073 -5.7283996,-3.30729 v -6.61458 l 5.7283996,3.30729 5.7284,3.30729 v 6.61459 l 5.72839,3.30729 5.7284,-3.30729 5.7284,-3.3073 -5.7284,-3.30729 -5.7284,3.30729 v -6.61458 l 5.7284,-3.30729 5.7284,3.30729 5.7284,-3.30729 5.72839,-3.30729 -5.72839,-3.30729 -5.7284,3.30729 v -6.61459 l 5.7284,-3.30729 v -6.61458 l -5.7284,-3.30729 -5.7284,-3.30729 v 6.61458 l 5.7284,3.30729 -5.7284,3.30729 -5.7284,-3.30729 -5.72839,3.30729 v 6.61459 l 5.72839,-3.3073 5.7284,3.3073 -5.7284,3.30729 -5.72839,3.30729 -5.7284,-3.30729 v -6.61459 L 7.8509264,305.6157 v 6.61459 l -5.7284,3.30729 v -6.61459 -6.61458 l 5.7284,-3.30729 5.7283996,3.30729 5.7284,-3.30729 5.72839,-3.30729 -5.72839,-3.30729 -5.7284,3.30729 v -6.61459 l 5.7284,-3.30729"
             inkscape:connector-curvature="0"
             clip-path="url(#clipPath5965-7)"
             transform="translate(-389.43587,-260.25976)" />
          <rect
             y="154.42558"
             x="-246.0249"
             height="3.6664853"
             width="22.802889"
             id="rect5582"
             style="opacity:0.9;fill:#ffffff;fill-opacity:1;stroke:none;stroke-width:0.13721247;stroke-miterlimit:4;stroke-dasharray:none;stroke-opacity:1" />
          <rect
             style="opacity:0.9;fill:#ffffff;fill-opacity:1;stroke:none;stroke-width:0.43622881;stroke-miterlimit:4;stroke-dasharray:none;stroke-opacity:1"
             id="rect5584"
             width="34.157509"
             height="19.322485"
             x="-295.04172"
             y="122.1501" />
          <rect
             y="141.00015"
             x="-286.75638"
             height="13.382195"
             width="11.241968"
             id="rect5586"
             style="opacity:0.9;fill:#ffffff;fill-opacity:1;stroke:none;stroke-width:0.208269;stroke-miterlimit:4;stroke-dasharray:none;stroke-opacity:1" />
          <rect
             y="122.15539"
             x="-260.32379"
             height="19.379618"
             width="51.9184"
             id="rect5588"
             style="opacity:0.9;fill:#ffffff;fill-opacity:1;stroke:none;stroke-width:0.47600001;stroke-miterlimit:4;stroke-dasharray:none;stroke-opacity:1" />
          <text
             id="text5592"
             y="157.41338"
             x="-245.231"
             style="font-style:normal;font-variant:normal;font-weight:normal;font-stretch:normal;font-size:10.58333302px;line-height:1.25;font-family:Consolas;-inkscape-font-specification:Consolas;letter-spacing:0px;word-spacing:0px;fill:#000000;fill-opacity:1;stroke:none;stroke-width:0.26458332"
             xml:space="preserve"><tspan
               style="font-style:normal;font-variant:normal;font-weight:normal;font-stretch:normal;font-size:3.88055563px;font-family:Inconsolata;-inkscape-font-specification:Inconsolata;stroke-width:0.26458332"
               y="157.41338"
               x="-245.231"
               id="tspan5590"
               sodipodi:role="line">wb da da bg</tspan></text>
          <rect
             style="opacity:0.9;fill:#ffffff;fill-opacity:1;stroke:none;stroke-width:0.4622992;stroke-miterlimit:4;stroke-dasharray:none;stroke-opacity:1"
             id="rect5594"
             width="70.711372"
             height="13.421763"
             x="-274.7511"
             y="141.00381" />
          <rect
             style="opacity:0.9;fill:#ffffff;fill-opacity:0.90196078;stroke:none;stroke-width:0.4255704;stroke-miterlimit:4;stroke-dasharray:none;stroke-opacity:0.90196078"
             id="rect5596"
             width="41.342739"
             height="19.453428"
             x="-207.90771"
             y="122.11848" />
          <text
             id="text5602"
             y="137.0677"
             x="-294.7403"
             style="font-style:normal;font-variant:normal;font-weight:normal;font-stretch:normal;font-size:10.58333302px;line-height:1.25;font-family:Inconsolata;-inkscape-font-specification:Inconsolata;letter-spacing:0px;word-spacing:0px;fill:#000000;fill-opacity:1;stroke:none;stroke-width:0.26458332"
             xml:space="preserve"><tspan
               id="tspan5600"
               style="font-style:normal;font-variant:normal;font-weight:normal;font-stretch:normal;font-size:16.93333244px;font-family:Inconsolata;-inkscape-font-specification:Inconsolata;stroke-width:0.26458332"
               y="137.0677"
               x="-294.7403"
               sodipodi:role="line">GEOMETR<tspan
   style="font-size:2.82222223px"
   id="tspan5598" />IC SHANK</tspan></text>
          <rect
             y="68.812576"
             x="-318.02252"
             height="35.279575"
             width="35.279575"
             id="rect5604"
             style="opacity:0.9;fill:#ff6666;fill-opacity:1;stroke:#333333;stroke-width:0.52916664;stroke-miterlimit:4;stroke-dasharray:none;stroke-opacity:1" />
          <rect
             y="83.245102"
             x="-301.45181"
             height="35.279575"
             width="35.279575"
             id="rect5606"
             style="opacity:0.9;fill:#ff6666;fill-opacity:1;stroke:#333333;stroke-width:0.52916664;stroke-miterlimit:4;stroke-dasharray:none;stroke-opacity:1" />
          <rect
             style="opacity:0.9;fill:#fbb829;fill-opacity:1;stroke:#d40000;stroke-width:0.52916664;stroke-miterlimit:4;stroke-dasharray:none;stroke-opacity:1"
             id="rect5608"
             width="35.279575"
             height="35.279575"
             x="-260.32379"
             y="68.278023" />
          <rect
             style="opacity:0.9;fill:#fbb829;fill-opacity:1;stroke:#d40000;stroke-width:0.52916664;stroke-miterlimit:4;stroke-dasharray:none;stroke-opacity:1"
             id="rect5610"
             width="35.279575"
             height="35.279575"
             x="-243.75307"
             y="82.710587" />
          <rect
             y="68.278023"
             x="-202.6443"
             height="35.279575"
             width="35.279575"
             id="rect5612"
             style="opacity:0.9;fill:#ff7a22;fill-opacity:1;stroke:#333333;stroke-width:0.52916664;stroke-miterlimit:4;stroke-dasharray:none;stroke-opacity:1" />
          <rect
             y="82.710587"
             x="-186.07362"
             height="35.279575"
             width="35.279575"
             id="rect5614"
             style="opacity:0.9;fill:#ff7a22;fill-opacity:1;stroke:#333333;stroke-width:0.52916664;stroke-miterlimit:4;stroke-dasharray:none;stroke-opacity:1" />
          <rect
             y="140.97824"
             x="-203.36192"
             height="13.472881"
             width="31.718832"
             id="rect5616"
             style="opacity:0.9;fill:#ffffff;fill-opacity:0.90196078;stroke:none;stroke-width:0.31021485;stroke-miterlimit:4;stroke-dasharray:none;stroke-opacity:0.90196078" />
          <text
             xml:space="preserve"
             style="font-style:normal;font-variant:normal;font-weight:normal;font-stretch:normal;font-size:10.58333302px;line-height:1.25;font-family:Consolas;-inkscape-font-specification:Consolas;letter-spacing:0px;word-spacing:0px;fill:#ff0000;fill-opacity:0.99215686;stroke:none;stroke-width:0.26458332"
             x="-283.02866"
             y="152.76414"
             id="text5620"><tspan
               sodipodi:role="line"
               id="tspan5618"
               x="-283.02866"
               y="152.76414"
               style="font-style:normal;font-variant:normal;font-weight:bold;font-stretch:normal;font-size:3.88055563px;font-family:Inconsolata;-inkscape-font-specification:'Inconsolata Bold';fill:#ff0000;fill-opacity:0.99215686;stroke-width:0.26458332">SEEM TO REFER TO FUTURE EVENTS TO FUTURE EVENTS TO FUTURE</tspan></text>
          <text
             xml:space="preserve"
             style="font-style:normal;font-variant:normal;font-weight:normal;font-stretch:normal;font-size:10.58333302px;line-height:1.25;font-family:Consolas;-inkscape-font-specification:Consolas;letter-spacing:0px;word-spacing:0px;fill:#000000;fill-opacity:1;stroke:none;stroke-width:0.26458332"
             x="-283.02866"
             y="143.76843"
             id="text5624"><tspan
               sodipodi:role="line"
               id="tspan5622"
               x="-283.02866"
               y="143.76843"
               style="font-style:normal;font-variant:normal;font-weight:bold;font-stretch:normal;font-size:3.88055563px;font-family:Inconsolata;-inkscape-font-specification:'Inconsolata Bold';stroke-width:0.26458332">when you experiment with  cut-ups over a period of time</tspan></text>
          <text
             id="text5628"
             y="148.00171"
             x="-283.02866"
             style="font-style:normal;font-variant:normal;font-weight:normal;font-stretch:normal;font-size:10.58333302px;line-height:1.25;font-family:Consolas;-inkscape-font-specification:Consolas;letter-spacing:0px;word-spacing:0px;fill:#000000;fill-opacity:1;stroke:none;stroke-width:0.26458332"
             xml:space="preserve"><tspan
               style="font-style:normal;font-variant:normal;font-weight:bold;font-stretch:normal;font-size:3.88055563px;font-family:Inconsolata;-inkscape-font-specification:'Inconsolata Bold';stroke-width:0.26458332"
               y="148.00171"
               x="-283.02866"
               id="tspan5626"
               sodipodi:role="line">you'll find that some of  the cut-ups and rearranged text </tspan></text>
        </g>
      </g>
      <rect
         style="opacity:1;fill:#ffffff;fill-opacity:1;stroke:none;stroke-width:0.21754709;stroke-miterlimit:4;stroke-dasharray:none;stroke-opacity:1"
         id="rect5634"
         width="2.0127013"
         height="104.51751"
         x="107.07549"
         y="147.50687" />
    </g>
    <g
       id="g5430"
       transform="translate(0,2.1166667)">
      <g
         id="g5382"
         transform="translate(342.44643,84.135915)"
         clip-path="url(#clipPath5505)">
        <g
           id="g5524">
          <path
             transform="translate(-389.43587,-260.25976)"
             clip-path="url(#clipPath5965-7)"
             inkscape:connector-curvature="0"
             d="m 334.36958,361.83966 v -6.61458 l -5.72839,-3.30729 v 6.61458 l -5.7284,3.30729 v -6.61458 -6.61459 l 5.7284,-3.30729 v -6.61458 l -5.7284,-3.30729 -5.7284,-3.30729 v 6.61458 l 5.7284,3.30729 -5.7284,3.30729 -5.7284,-3.30729 -5.72839,3.30729 v 6.61459 6.61458 l 5.72839,-3.30729 v -6.61459 l 5.7284,3.3073 v 6.61458 l -5.7284,3.30729 v 6.61458 l 5.7284,-3.30729 5.7284,3.30729 -5.7284,3.3073 -5.7284,3.30729 -5.72839,-3.30729 v -6.61459 l -5.7284,-3.30729 v 6.61458 l -5.7284,3.3073 v -6.61459 -6.61458 l 5.7284,-3.30729 v -6.61459 l -5.7284,-3.30729 v 6.61459 l -5.72839,3.30729 v -6.61459 -6.61458 l 5.72839,-3.30729 5.7284,3.30729 5.7284,-3.30729 5.72839,-3.30729 -5.72839,-3.30729 -5.7284,3.30729 v -6.61459 l 5.7284,-3.30729 v -6.61458 l -5.7284,-3.30729 v 6.61458 l -5.7284,3.30729 v -6.61458 -6.61458 l 5.7284,-3.3073 v -6.61458 l -5.7284,-3.30729 -5.72839,-3.30729 v 6.61458 l 5.72839,3.30729 -5.72839,3.30729 -5.7284,-3.30729 v -6.61458 l -5.7284,-3.30729 -5.7284,-3.30729 v 6.61458 l 5.7284,3.30729 -5.7284,3.30729 -5.72839,-3.30729 -5.7284,3.30729 v 6.61459 6.61458 l 5.7284,-3.30729 v -6.61459 l 5.72839,3.3073 v 6.61458 l 5.7284,3.30729 5.7284,-3.30729 -5.7284,-3.30729 v -6.61459 l 5.7284,3.3073 5.7284,3.30729 v 6.61458 l -5.7284,3.30729 v 6.61459 l 5.7284,-3.3073 5.72839,3.3073 -5.72839,3.30729 -5.7284,3.30729 -5.7284,-3.30729 v -6.61459 l -5.7284,-3.30729 -5.72839,-3.30729 v 6.61458 l 5.72839,3.3073 -5.72839,3.30729 -5.7284,-3.30729 -5.7284,3.30729 v 6.61458 l 5.7284,-3.30729 5.7284,3.30729 -5.7284,3.30729 -5.7284,3.30729 -5.72839,-3.30729 -5.7284,3.30729 v 6.61459 6.61458 l 5.7284,-3.30729 v -6.61458 l 5.72839,3.30729 v 6.61458 l -5.72839,3.30729 v 6.61459 6.61458 l 5.72839,-3.30729 v -6.61459 l 5.7284,3.3073 v 6.61458 l 5.7284,3.30729 5.72839,-3.30729 5.7284,-3.30729 -5.7284,-3.30729 -5.72839,3.30729 v -6.61459 l 5.72839,-3.30729 v -6.61458 l -5.72839,-3.30729 v 6.61458 l -5.7284,3.30729 v -6.61458 -6.61458 l 5.7284,-3.3073 5.72839,3.3073 5.7284,-3.3073 -5.7284,-3.30729 v -6.61458 l 5.7284,3.30729 5.7284,3.30729 v 6.61459 l -5.7284,3.30729 v 6.61458 6.61458 l 5.7284,-3.30729 v -6.61458 l 5.7284,3.30729 v 6.61458 l -5.7284,3.3073 v 6.61458 l 5.7284,-3.30729 5.72839,3.30729 -5.72839,3.30729 -5.7284,3.30729 -5.7284,-3.30729 -5.7284,3.30729 v 6.61459 6.61458 l 5.7284,-3.30729 v -6.61459 l 5.7284,3.3073 v 6.61458 l 5.7284,3.30729 5.72839,-3.30729 5.7284,-3.30729 -5.7284,-3.30729 -5.72839,3.30729 v -6.61459 l 5.72839,-3.30729 5.7284,3.30729 5.7284,-3.30729 -5.7284,-3.30729 v -6.61458 l 5.7284,3.30729 5.72839,3.30729 v 6.61458 l -5.72839,3.3073 v 6.61458 l 5.72839,-3.30729 5.7284,3.30729 -5.7284,3.30729 -5.72839,3.30729 -5.7284,-3.30729 -5.7284,3.30729 v 6.61459 l 5.7284,-3.3073 5.7284,3.3073 -5.7284,3.30729 -5.7284,3.30729 -5.72839,-3.30729 v -6.61459 l -5.7284,-3.30729 -5.7284,-3.30729 v 6.61458 l 5.7284,3.3073 -5.7284,3.30729 -5.7284,-3.30729 v -6.61459 l -5.72839,-3.30729 v 6.61458 l -5.7284,3.3073 v -6.61459 -6.61458 l 5.7284,-3.30729 v -6.61459 l -5.7284,-3.30729 -5.7284,-3.30729 v 6.61458 l 5.7284,3.3073 -5.7284,3.30729 -5.72839,-3.30729 -5.7284,3.30729 v 6.61458 6.61458 l 5.7284,-3.30729 v -6.61458 l 5.72839,3.30729 v 6.61458 l -5.72839,3.3073 v 6.61458 l 5.72839,-3.30729 5.7284,3.30729 -5.7284,3.30729 -5.72839,3.30729 -5.7284,-3.30729 v -6.61458 l -5.7284,-3.30729 v 6.61458 l -5.7284,3.30729 v -6.61458 -6.61459 l 5.7284,-3.30729 v -6.61458 l -5.7284,-3.30729 v 6.61458 l -5.72839,3.30729 v -6.61458 -6.61458 l 5.72839,-3.3073 5.7284,3.3073 5.7284,-3.3073 5.7284,-3.30729 -5.7284,-3.30729 -5.7284,3.30729 v -6.61458 l 5.7284,-3.30729 v -6.61459 l -5.7284,-3.30729 v 6.61459 l -5.7284,3.30729 v -6.61459 -6.61458 l 5.7284,-3.30729 v -6.61458 l -5.7284,-3.3073 -5.72839,-3.30729 v 6.61459 l 5.72839,3.30729 -5.72839,3.30729 -5.7284,-3.30729 -5.72841,3.30729 v 6.61458 6.61459 l 5.72841,-3.3073 v -6.61458 l 5.7284,3.30729 v 6.61459 l -5.7284,3.30729 v 6.61458 l 5.7284,-3.30729 5.72839,3.30729 -5.72839,3.30729 -5.7284,3.30729 -5.72841,-3.30729 v -6.61458 l -5.7284,-3.30729 v 6.61458 l -5.72839,3.30729 v -6.61458 -6.61458 l 5.72839,-3.3073 v -6.61458 l -5.72839,-3.30729 v 6.61458 l -5.7284,3.30729 v -6.61458 -6.61458 l 5.7284,-3.30729 5.72839,3.30729 5.7284,-3.30729 5.72841,-3.3073 -5.72841,-3.30729 -5.7284,3.30729 v -6.61458 l 5.7284,-3.30729 5.72841,3.30729 5.7284,-3.30729 -5.7284,-3.30729 v -6.61459 l 5.7284,3.3073 5.72839,3.30729 v 6.61458 l 5.7284,3.30729 5.7284,-3.30729 5.7284,-3.30729 -5.7284,-3.30729 -5.7284,3.30729 v -6.61458 l 5.7284,-3.3073 5.7284,3.3073 5.72839,-3.3073 5.7284,-3.30729 -5.7284,-3.30729 -5.72839,3.30729 v -6.61458 l 5.72839,-3.30729 v -6.61459 l -5.72839,-3.30729 -5.7284,-3.30729 v 6.61458 l 5.7284,3.3073 -5.7284,3.30729 -5.7284,-3.30729 -5.7284,3.30729 v 6.61458 l 5.7284,-3.30729 5.7284,3.30729 -5.7284,3.30729 -5.7284,3.30729 -5.72839,-3.30729 v -6.61458 l -5.7284,-3.30729 v 6.61458 l -5.72841,3.30729 v -6.61458 -6.61458 l 5.72841,-3.3073 5.7284,3.3073 5.72839,-3.3073 5.7284,-3.30729 -5.7284,-3.30729 -5.72839,3.30729 v -6.61458 l 5.72839,-3.30729 v -6.61459 l -5.72839,-3.30729 v 6.61459 l -5.7284,3.30729 v -6.61459 -6.61458 l 5.7284,-3.30729 v -6.61458 l -5.7284,-3.3073 -5.72841,-3.30729 v 6.61459 l 5.72841,3.30729 -5.72841,3.30729 -5.7284,-3.30729 -5.72839,3.30729 v 6.61458 6.61459 l 5.72839,-3.3073 v -6.61458 l 5.7284,3.30729 v 6.61459 l -5.7284,3.30729 v 6.61458 l 5.7284,-3.30729 5.72841,3.30729 -5.72841,3.30729 -5.7284,3.30729 -5.72839,-3.30729 v -6.61458 l -5.7284,-3.30729 v 6.61458 l -5.72839,3.30729 v -6.61458 -6.61458 l 5.72839,-3.3073 v -6.61458 l -5.72839,-3.30729 v 6.61458 l -5.72839,3.30729 v -6.61458 -6.61458 l 5.72839,-3.30729 5.72839,3.30729 5.7284,-3.30729 5.72839,-3.3073 -5.72839,-3.30729 -5.7284,3.30729 v -6.61458 l 5.7284,-3.30729 v -6.61458 l -5.7284,-3.3073 v 6.61459 l -5.72839,3.30729 v -6.61458 -6.61459 l 5.72839,-3.30729 v -6.61458 l -5.72839,-3.30729 -5.72839,-3.3073 v 6.61459 l 5.72839,3.30729 -5.72839,3.30729 -5.7284,-3.30729 v -6.61458 l -5.7284,-3.3073 -5.7284,-3.30729 v 6.61459 l 5.7284,3.30729 -5.7284,3.30729 -5.72839,-3.30729 -5.7284,3.30729 v 6.61458 6.61459 l 5.7284,-3.3073 v -6.61458 l 5.72839,3.30729 v 6.61459 l 5.7284,3.30729 5.7284,-3.30729 -5.7284,-3.3073 v -6.61458 l 5.7284,3.30729 5.7284,3.30729 v 6.61459 l -5.7284,3.30729 v 6.61458 l 5.7284,-3.30729 5.72839,3.30729 -5.72839,3.30729 -5.7284,3.3073 -5.7284,-3.3073 v -6.61458 l -5.7284,-3.30729 -5.72839,-3.30729 v 6.61458 l 5.72839,3.30729 -5.72839,3.30729 -5.7284,-3.30729 v -6.61458 l -5.7284,-3.30729 v 6.61458 l -5.7284,3.30729 v -6.61458 -6.61458 l 5.7284,-3.3073 v -6.61458 l -5.7284,-3.30729 -5.7284,-3.30729 v 6.61458 l 5.7284,3.30729 -5.7284,3.30729 -5.7284,-3.30729 v -6.61458 l -5.7284,-3.30729 -5.72839,-3.30729 v 6.61458 l 5.72839,3.30729 -5.72839,3.30729 -5.7284,-3.30729 -5.7284,3.30729 v 6.61459 6.61458 l 5.7284,-3.30729 v -6.61459 l 5.7284,3.3073 v 6.61458 l 5.72839,3.30729 5.7284,-3.30729 -5.7284,-3.30729 v -6.61459 l 5.7284,3.3073 5.7284,3.30729 v 6.61458 l -5.7284,3.30729 v 6.61459 l 5.7284,-3.3073 5.7284,3.3073 -5.7284,3.30729 -5.7284,3.30729 -5.7284,-3.30729 v -6.61459 l -5.72839,-3.30729 -5.7284,-3.30729 v 6.61458 l 5.7284,3.3073 -5.7284,3.30729 -5.7284,-3.30729 -5.7284,3.30729 v 6.61458 l 5.7284,-3.30729 5.7284,3.30729 -5.7284,3.30729 -5.7284,3.30729 -5.728394,-3.30729 -5.7284,3.30729 v 6.61459 6.61458 l 5.7284,-3.30729 v -6.61458 l 5.728394,3.30729 v 6.61458 l -5.728394,3.30729 v 6.61459 6.61458 l 5.728394,-3.30729 v -6.61459 l 5.7284,3.3073 v 6.61458 l 5.7284,3.30729 5.7284,-3.30729 5.72839,-3.30729 -5.72839,-3.30729 -5.7284,3.30729 v -6.61459 l 5.7284,-3.30729 v -6.61458 l -5.7284,-3.30729 v 6.61458 l -5.7284,3.30729 v -6.61458 -6.61458 l 5.7284,-3.3073 5.7284,3.3073 5.72839,-3.3073 -5.72839,-3.30729 v -6.61458 l 5.72839,3.30729 5.7284,3.30729 v 6.61459 l -5.7284,3.30729 v 6.61458 6.61458 l 5.7284,-3.30729 v -6.61458 l 5.7284,3.30729 v 6.61458 l 5.7284,3.3073 5.7284,-3.3073 -5.7284,-3.30729 v -6.61458 l 5.7284,3.30729 5.7284,3.30729 v 6.61459 l 5.7284,3.30729 5.72839,-3.30729 5.7284,-3.3073 -5.7284,-3.30729 -5.72839,3.30729 v -6.61458 l 5.72839,-3.30729 v -6.61458 l -5.72839,-3.3073 -5.7284,-3.30729 v 6.61459 l 5.7284,3.30729 -5.7284,3.30729 -5.7284,-3.30729 v -6.61459 l -5.7284,-3.30729 v 6.61459 l -5.7284,3.30729 v -6.61459 -6.61458 l 5.7284,-3.30729 5.7284,3.30729 5.7284,-3.30729 -5.7284,-3.30729 v -6.61459 l 5.7284,3.3073 5.7284,3.30729 v 6.61458 l 5.72839,3.30729 5.7284,-3.30729 -5.7284,-3.30729 v -6.61458 l 5.7284,3.30729 5.7284,3.30729 v 6.61458 l -5.7284,3.30729 v 6.61459 6.61458 l 5.7284,-3.30729 v -6.61458 l 5.7284,3.30729 v 6.61458 l -5.7284,3.30729 v 6.61459 l 5.7284,-3.3073 5.72839,3.3073 -5.72839,3.30729 -5.7284,3.30729 -5.7284,-3.30729 -5.7284,3.30729 v 6.61458 6.61459 l 5.7284,-3.3073 v -6.61458 l 5.7284,3.30729 v 6.61459 l 5.7284,3.30729 5.72839,-3.30729 5.72839,-3.3073 -5.72839,-3.30729 -5.72839,3.30729 v -6.61458 l 5.72839,-3.30729 5.72839,3.30729 5.7284,-3.30729 -5.7284,-3.30729 v -6.61459 l 5.7284,3.3073 5.72839,3.30729 v 6.61458 l -5.72839,3.30729 v 6.61459 l 5.72839,-3.3073 5.7284,3.3073 -5.7284,3.30729 -5.72839,3.30729 -5.7284,-3.30729 -5.72839,3.30729 v 6.61458 l 5.72839,-3.30729 5.7284,3.30729 -5.7284,3.30729 -5.72839,3.3073 -5.72839,-3.3073 v -6.61458 l -5.7284,-3.30729 -5.7284,-3.30729 v 6.61458 l 5.7284,3.30729 -5.7284,3.30729 -5.7284,-3.30729 v -6.61458 l -5.72839,-3.30729 v 6.61458 l -5.7284,3.30729 v -6.61458 -6.61458 l 5.7284,-3.3073 v -6.61458 l -5.7284,-3.30729 -5.7284,-3.30729 v 6.61458 l 5.7284,3.30729 -5.7284,3.30729 -5.7284,-3.30729 v -6.61458 l -5.7284,-3.30729 -5.7284,-3.30729 v 6.61458 l 5.7284,3.30729 -5.7284,3.30729 -5.7284,-3.30729 -5.72839,3.30729 v 6.61459 6.61458 l 5.72839,-3.30729 v -6.61459 l 5.7284,3.3073 v 6.61458 l 5.7284,3.30729 5.7284,-3.30729 -5.7284,-3.30729 v -6.61459 l 5.7284,3.3073 5.7284,3.30729 v 6.61458 l -5.7284,3.30729 v 6.61459 l 5.7284,-3.3073 5.7284,3.3073 -5.7284,3.30729 -5.7284,3.30729 -5.7284,-3.30729 v -6.61459 l -5.7284,-3.30729 -5.7284,-3.30729 v 6.61458 l 5.7284,3.3073 -5.7284,3.30729 -5.72839,-3.30729 -5.7284,3.30729 v 6.61458 l 5.7284,-3.30729 5.72839,3.30729 -5.72839,3.30729 -5.7284,3.30729 -5.7284,-3.30729 -5.7284,3.30729 v 6.61459 6.61458 l 5.7284,-3.30729 v -6.61458 l 5.7284,3.30729 v 6.61458 l 5.7284,3.30729 5.72839,-3.30729 5.7284,-3.30729 -5.7284,-3.30729 -5.72839,3.30729 v -6.61458 l 5.72839,-3.3073 5.7284,3.3073 5.7284,-3.3073 -5.7284,-3.30729 v -6.61458 l 5.7284,3.30729 5.7284,3.30729 v 6.61459 l -5.7284,3.30729 v 6.61458 l 5.7284,-3.30729 5.7284,3.30729 -5.7284,3.30729 -5.7284,3.30729 -5.7284,-3.30729 -5.7284,3.30729 v 6.61459 l 5.7284,-3.30729 5.7284,3.30729 -5.7284,3.30729 -5.7284,3.30729 -5.72839,-3.30729 v -6.61458 l -5.7284,-3.3073 -5.7284,-3.30729 v 6.61459 l 5.7284,3.30729 -5.7284,3.30729 -5.7284,-3.30729 -5.728394,3.30729 v 6.61458 l 5.728394,-3.30729 5.7284,3.30729 -5.7284,3.30729 -5.728394,3.3073 -5.7284,-3.3073 -5.7284,3.3073 v 6.61458 6.61458 l 5.7284,-3.30729 v -6.61458 l 5.7284,3.30729 v 6.61458 l -5.7284,3.30729 v 6.61459 6.61458 l 5.7284,-3.30729 v -6.61458 l 5.728394,3.30729 v 6.61458 l 5.7284,3.30729 5.7284,-3.30729 5.7284,-3.30729 -5.7284,-3.30729 -5.7284,3.30729 v -6.61458 l 5.7284,-3.3073 v -6.61458 l -5.7284,-3.30729 v 6.61458 l -5.7284,3.30729 v -6.61458 -6.61458 l 5.7284,-3.30729 5.7284,3.30729 5.7284,-3.30729 -5.7284,-3.3073 v -6.61458 l 5.7284,3.30729 5.72839,3.30729 v 6.61459 l -5.72839,3.30729 v 6.61458 6.61459 l 5.72839,-3.3073 v -6.61458 l 5.7284,3.30729 v 6.61459 l -5.7284,3.30729 v 6.61458 l 5.7284,-3.30729 5.7284,3.30729 -5.7284,3.30729 -5.7284,3.30729 -5.72839,-3.30729 -5.7284,3.30729 v 6.61459 6.61458 l 5.7284,-3.30729 v -6.61458 l 5.72839,3.30729 v 6.61458 l -5.72839,3.30729 v 6.61459 6.61458 l 5.72839,-3.30729 v -6.61459 l 5.7284,3.3073 v 6.61458 l 5.7284,3.30729 5.7284,-3.30729 5.7284,-3.30729 -5.7284,-3.30729 -5.7284,3.30729 v -6.61459 l 5.7284,-3.30729 v -6.61458 l -5.7284,-3.30729 v 6.61458 l -5.7284,3.30729 v -6.61458 -6.61458 l 5.7284,-3.3073 5.7284,3.3073 5.7284,-3.3073 -5.7284,-3.30729 v -6.61458 l 5.7284,3.30729 5.7284,3.30729 v 6.61459 l -5.7284,3.30729 v 6.61458 6.61458 l 5.7284,-3.30729 v -6.61458 l 5.7284,3.30729 v 6.61458 l 5.72839,3.3073 5.7284,-3.3073 -5.7284,-3.30729 v -6.61458 l 5.7284,3.30729 5.7284,3.30729 v 6.61459 l 5.7284,3.30729 5.72839,-3.30729 5.72839,-3.3073 -5.72839,-3.30729 -5.72839,3.30729 v -6.61458 l 5.72839,-3.30729 5.72839,3.30729 5.7284,-3.30729 5.72839,-3.30729 -5.72839,-3.30729 -5.7284,3.30729 v -6.61459 l 5.7284,-3.30729 v -6.61458 l -5.7284,-3.30729 -5.72839,-3.30729 v 6.61458 l 5.72839,3.30729 -5.72839,3.30729 -5.72839,-3.30729 -5.7284,3.30729 v 6.61459 l 5.7284,-3.3073 5.72839,3.3073 -5.72839,3.30729 -5.7284,3.30729 -5.7284,-3.30729 v -6.61459 l -5.7284,-3.30729 v 6.61459 l -5.72839,3.30729 v -6.61459 -6.61458 l 5.72839,-3.30729 5.7284,3.30729 5.7284,-3.30729 5.7284,-3.30729 -5.7284,-3.30729 -5.7284,3.30729 v -6.61459 l 5.7284,-3.30729 v -6.61458 l -5.7284,-3.30729 v 6.61458 l -5.7284,3.30729 v -6.61458 -6.61458 l 5.7284,-3.3073 v -6.61458 l -5.7284,-3.30729 -5.72839,-3.30729 v 6.61458 l 5.72839,3.30729 -5.72839,3.30729 -5.7284,-3.30729 -5.7284,3.30729 v 6.61459 6.61458 l 5.7284,-3.30729 v -6.61458 l 5.7284,3.30729 v 6.61458 l -5.7284,3.30729 v 6.61459 l 5.7284,-3.3073 5.72839,3.3073 -5.72839,3.30729 -5.7284,3.30729 -5.7284,-3.30729 v -6.61459 l -5.7284,-3.30729 v 6.61459 l -5.7284,3.30729 v -6.61459 -6.61458 l 5.7284,-3.30729 v -6.61458 l -5.7284,-3.3073 v 6.61459 l -5.7284,3.30729 v -6.61458 -6.61459 l 5.7284,-3.30729 5.7284,3.30729 5.7284,-3.30729 5.7284,-3.30729 -5.7284,-3.30729 -5.7284,3.30729 v -6.61458 l 5.7284,-3.3073 5.7284,3.3073 5.7284,-3.3073 -5.7284,-3.30729 v -6.61458 l 5.7284,3.30729 5.72839,3.30729 v 6.61459 l 5.7284,3.30729 5.7284,-3.30729 5.7284,-3.3073 -5.7284,-3.30729 -5.7284,3.30729 v -6.61458 l 5.7284,-3.30729 v -6.61458 l -5.7284,-3.3073 -5.7284,-3.30729 v 6.61459 l 5.7284,3.30729 -5.7284,3.30729 -5.72839,-3.30729 v -6.61459 l -5.7284,-3.30729 v 6.61459 l -5.7284,3.30729 v -6.61459 -6.61458 l 5.7284,-3.30729 5.7284,3.30729 5.72839,-3.30729 -5.72839,-3.30729 v -6.61459 l 5.72839,3.3073 5.7284,3.30729 v 6.61458 l 5.7284,3.30729 5.7284,-3.30729 -5.7284,-3.30729 v -6.61458 l 5.7284,3.30729 5.72839,3.30729 v 6.61458 l -5.72839,3.30729 v 6.61459 6.61458 l 5.72839,-3.30729 v -6.61458 l 5.72839,3.30729 v 6.61458 l -5.72839,3.30729 v 6.61459 l 5.72839,-3.3073 5.7284,3.3073 -5.7284,3.30729 -5.72839,3.30729 -5.72839,-3.30729 -5.7284,3.30729 v 6.61458 6.61459 l 5.7284,-3.3073 v -6.61458 l 5.72839,3.30729 v 6.61459 l -5.72839,3.30729 v 6.61458 6.61458 l 5.72839,-3.30729 v -6.61458 l 5.72839,3.30729 v 6.61458 l 5.7284,3.3073 5.72839,-3.3073 5.7284,-3.30729 -5.7284,-3.30729 -5.72839,3.30729 v -6.61458 l 5.72839,-3.30729 v -6.61459 l -5.72839,-3.30729 v 6.61459 l -5.7284,3.30729 v -6.61459 -6.61458 l 5.7284,-3.30729 5.72839,3.30729 5.7284,-3.30729 -5.7284,-3.30729 v -6.61459 l 5.7284,3.3073 5.72841,3.30729 v 6.61458 l -5.72841,3.30729 v 6.61459 6.61458 l 5.72841,-3.30729 v -6.61459 l 5.7284,3.3073 v 6.61458 l -5.7284,3.30729 v 6.61458 l 5.7284,-3.30729 5.72839,3.30729 -5.72839,3.3073 -5.7284,3.30729 -5.72841,-3.30729 -5.7284,3.30729 v 6.61458 6.61458 l 5.7284,-3.30729 v -6.61458 l 5.72841,3.30729 v 6.61458 l 5.7284,3.3073 5.72839,-3.3073 5.7284,-3.30729 -5.7284,-3.30729 -5.72839,3.30729 v -6.61458 l 5.72839,-3.30729 5.7284,3.30729 5.7284,-3.30729 -5.7284,-3.30729 v -6.61459 l 5.7284,3.30729 5.7284,3.3073 v 6.61458 l -5.7284,3.30729 v 6.61458 l 5.7284,-3.30729 5.72839,3.30729 -5.72839,3.3073 -5.7284,3.30729 -5.7284,-3.30729 -5.7284,3.30729 v 6.61458 l 5.7284,-3.30729 5.7284,3.30729 -5.7284,3.30729 -5.7284,3.30729 -5.72839,-3.30729 v -6.61458 l -5.7284,-3.30729 -5.72841,-3.30729 v 6.61458 l 5.72841,3.30729 -5.72841,3.30729 -5.7284,-3.30729 -5.72839,3.30729 v 6.61459 l 5.72839,-3.3073 5.7284,3.3073 -5.7284,3.30729 -5.72839,3.30729 -5.7284,-3.30729 -5.72839,3.30729 v 6.61458 6.61459 l 5.72839,-3.3073 v -6.61458 l 5.7284,3.30729 v 6.61459 l -5.7284,3.30729 v 6.61458 6.61458 l 5.7284,-3.30729 v -6.61458 l 5.72839,3.30729 v 6.61458 l 5.7284,3.3073 5.72841,-3.3073 5.7284,-3.30729 -5.7284,-3.30729 -5.72841,3.30729 v -6.61458 l 5.72841,-3.30729 v -6.61459 l -5.72841,-3.30729 v 6.61459 l -5.7284,3.30729 v -6.61459 -6.61458 l 5.7284,-3.30729 5.72841,3.30729 5.7284,-3.30729 -5.7284,-3.30729 v -6.61459 l 5.7284,3.3073 5.72839,3.30729 v 6.61458 l -5.72839,3.30729 v 6.61459 6.61458 l 5.72839,-3.30729 v -6.61459 l 5.7284,3.3073 v 6.61458 l 5.7284,3.30729 5.7284,-3.30729 -5.7284,-3.30729 v -6.61459 l 5.7284,3.3073 5.72839,3.30729 v 6.61458 l 5.7284,3.30729 5.7284,-3.30729 5.72839,-3.30729 -5.72839,-3.30729 -5.7284,3.30729 v -6.61458 l 5.7284,-3.3073 5.72839,3.3073 5.7284,-3.3073 5.7284,-3.30729 -5.7284,-3.30729 -5.7284,3.30729 v -6.61458 l 5.7284,-3.30729 v -6.61459 l -5.7284,-3.30729 -5.72839,-3.30729 v 6.61458 l 5.72839,3.3073 -5.72839,3.30729 -5.7284,-3.30729 -5.7284,3.30729 v 6.61458 l 5.7284,-3.30729 5.7284,3.30729 -5.7284,3.30729 -5.7284,3.30729 -5.72839,-3.30729 v -6.61458 l -5.7284,-3.30729 v 6.61458 l -5.7284,3.30729 v -6.61458 -6.61458 l 5.7284,-3.3073 5.7284,3.3073 5.72839,-3.3073 5.7284,-3.30729 -5.7284,-3.30729 -5.72839,3.30729 v -6.61458 l 5.72839,-3.30729 5.7284,3.30729 5.7284,-3.30729 -5.7284,-3.30729 v -6.61459 l 5.7284,3.30729 5.72839,3.3073 v 6.61458 l 5.7284,3.30729 5.7284,-3.30729 5.7284,-3.30729 -5.7284,-3.30729 -5.7284,3.30729 v -6.61459 l 5.7284,-3.30729 v -6.61458 l -5.7284,-3.30729 -5.7284,-3.30729 v 6.61458 l 5.7284,3.30729 -5.7284,3.30729 -5.72839,-3.30729 v -6.61458 l -5.7284,-3.30729 v 6.61458 l -5.7284,3.30729 v -6.61458 -6.61459 l 5.7284,-3.30729 5.7284,3.30729 5.72839,-3.30729 -5.72839,-3.30729 v -6.61458 l 5.72839,3.30729 5.7284,3.30729 v 6.61458 l 5.7284,3.3073 5.7284,-3.3073 -5.7284,-3.30729 v -6.61458 l 5.7284,3.30729 5.72839,3.30729 v 6.61459 l -5.72839,3.30729 v 6.61458 6.61458 l 5.72839,-3.30729 v -6.61458 l 5.7284,3.30729 v 6.61458 l -5.7284,3.3073 v 6.61458 l 5.7284,-3.30729 5.7284,3.30729 -5.7284,3.30729 -5.7284,3.30729 -5.72839,-3.30729 -5.7284,3.30729 v 6.61459 6.61458 l 5.7284,-3.30729 v -6.61459 l 5.72839,3.3073 v 6.61458 l 5.7284,3.30729 5.7284,-3.30729 5.72839,-3.30729 -5.72839,-3.30729 -5.7284,3.30729 v -6.61459 l 5.7284,-3.30729 5.72839,3.30729 5.7284,-3.30729 -5.7284,-3.30729 v -6.61458 l 5.7284,3.30729 5.7284,3.30729 v 6.61458 l -5.7284,3.3073 v 6.61458 l 5.7284,-3.30729 5.7284,3.30729 -5.7284,3.30729 -5.7284,3.30729 -5.7284,-3.30729 -5.72839,3.30729 v 6.61459 l 5.72839,-3.3073 5.7284,3.3073 -5.7284,3.30729 -5.72839,3.30729 -5.7284,-3.30729 v -6.61459 l -5.7284,-3.30729 -5.72839,-3.30729 v 6.61458 l 5.72839,3.3073 -5.72839,3.30729 -5.7284,-3.30729 -5.7284,3.30729 v 6.61458 l 5.7284,-3.30729 5.7284,3.30729 -5.7284,3.30729 -5.7284,3.30729 -5.7284,-3.30729 -5.72839,3.30729 v 6.61459 6.61458 l 5.72839,-3.30729 v -6.61458 l 5.7284,3.30729 v 6.61458 l 5.7284,3.30729 5.7284,-3.30729 5.72839,-3.30729 -5.72839,-3.30729 -5.7284,3.30729 v -6.61458 l 5.7284,-3.3073 5.72839,3.3073 5.7284,-3.3073 -5.7284,-3.30729 v -6.61458 l 5.7284,3.30729 5.7284,3.30729 v 6.61459 l -5.7284,3.30729 v 6.61458 l 5.7284,-3.30729 5.72839,3.30729 -5.72839,3.30729 -5.7284,3.30729 -5.7284,-3.30729 -5.72839,3.30729 v 6.61459 l 5.72839,-3.30729 5.7284,3.30729 -5.7284,3.30729 -5.72839,3.30729 -5.7284,-3.30729 v -6.61458 l -5.7284,-3.3073 -5.7284,-3.30729 v 6.61459 l 5.7284,3.30729 -5.7284,3.30729 -5.72839,-3.30729 v -6.61459 l -5.7284,-3.30729 v 6.61459 l -5.7284,3.30729 v -6.61459 -6.61458 l 5.7284,-3.30729 v -6.61458 l -5.7284,-3.3073 -5.72839,-3.30729 v 6.61459 l 5.72839,3.30729 -5.72839,3.30729 -5.7284,-3.30729 v -6.61459 l -5.7284,-3.30729 -5.7284,-3.30729 v 6.61458 l 5.7284,3.3073 -5.7284,3.30729 -5.72839,-3.30729 -5.7284,3.30729 v 6.61458 6.61458 l 5.7284,-3.30729 v -6.61458 l 5.72839,3.30729 v 6.61458 l 5.7284,3.3073 5.7284,-3.3073 -5.7284,-3.30729 v -6.61458 l 5.7284,3.30729 5.7284,3.30729 v 6.61459 l -5.7284,3.30729 v 6.61458 l 5.7284,-3.30729 5.72839,3.30729 -5.72839,3.30729 -5.7284,3.30729 -5.7284,-3.30729 v -6.61458 l -5.7284,-3.30729 -5.72839,-3.30729 v 6.61458 l 5.72839,3.30729 -5.72839,3.30729 -5.7284,-3.30729 v -6.61458 l -5.72841,-3.30729 v 6.61458 l -5.7284,3.30729 v -6.61458 -6.61459 l 5.7284,-3.30729 v -6.61458 l -5.7284,-3.30729 -5.72839,-3.30729 v 6.61458 l 5.72839,3.30729 -5.72839,3.30729 -5.7284,-3.30729 -5.72839,3.30729 v 6.61459 6.61458 l 5.72839,-3.30729 v -6.61459 l 5.7284,3.3073 v 6.61458 l -5.7284,3.30729 v 6.61458 l 5.7284,-3.30729 5.72839,3.30729 -5.72839,3.3073 -5.7284,3.30729 -5.72839,-3.30729 v -6.61459 l -5.72839,-3.30729 v 6.61458 l -5.7284,3.3073 v -6.61459 -6.61458 l 5.7284,-3.30729 v -6.61459 l -5.7284,-3.30729 v 6.61459 l -5.7284,3.30729 v -6.61459 -6.61458 l 5.7284,-3.30729 5.7284,3.30729 5.72839,-3.30729 5.72839,-3.30729 -5.72839,-3.30729 -5.72839,3.30729 v -6.61459 l 5.72839,-3.30729 v -6.61458 l -5.72839,-3.30729 v 6.61458 l -5.7284,3.30729 v -6.61458 -6.61458 l 5.7284,-3.3073 v -6.61458 l -5.7284,-3.30729 -5.7284,-3.30729 v 6.61458 l 5.7284,3.30729 -5.7284,3.30729 -5.7284,-3.30729 v -6.61458 l -5.72839,-3.30729 -5.7284,-3.30729 v 6.61458 l 5.7284,3.30729 -5.7284,3.30729 -5.7284,-3.30729 -5.7284,3.30729 v 6.61459 6.61458 l 5.7284,-3.30729 v -6.61459 l 5.7284,3.3073 v 6.61458 l 5.7284,3.30729 5.72839,-3.30729 -5.72839,-3.30729 v -6.61459 l 5.72839,3.3073 5.7284,3.30729 v 6.61458 l -5.7284,3.30729 v 6.61459 l 5.7284,-3.3073 5.7284,3.3073 -5.7284,3.30729 -5.7284,3.30729 -5.72839,-3.30729 v -6.61459 l -5.7284,-3.30729 -5.7284,-3.30729 v 6.61458 l 5.7284,3.3073 -5.7284,3.30729 -5.7284,-3.30729 -5.7284,3.30729 v 6.61458 l 5.7284,-3.30729 5.7284,3.30729 -5.7284,3.30729 -5.7284,3.30729 -5.7284,-3.30729 -5.7284,3.30729 v 6.61459 6.61458 l 5.7284,-3.30729 v -6.61458 l 5.7284,3.30729 v 6.61458 l -5.7284,3.30729 v 6.61459 6.61458 l 5.7284,-3.30729 v -6.61459 l 5.7284,3.3073 v 6.61458 l 5.7284,3.30729 5.7284,-3.30729 5.7284,-3.30729 -5.7284,-3.30729 -5.7284,3.30729 v -6.61459 l 5.7284,-3.30729 v -6.61458 l -5.7284,-3.30729 v 6.61458 l -5.7284,3.30729 v -6.61458 -6.61458 l 5.7284,-3.3073 5.7284,3.3073 5.7284,-3.3073 -5.7284,-3.30729 v -6.61458 l 5.7284,3.30729 5.72839,3.30729 v 6.61459 l -5.72839,3.30729 v 6.61458 6.61458 l 5.72839,-3.30729 v -6.61458 l 5.7284,3.30729 v 6.61458 l -5.7284,3.3073 v 6.61458 l 5.7284,-3.30729 5.7284,3.30729 -5.7284,3.30729 -5.7284,3.30729 -5.72839,-3.30729 -5.7284,3.30729 v 6.61459 6.61458 l 5.7284,-3.30729 v -6.61459 l 5.72839,3.3073 v 6.61458 l 5.7284,3.30729 5.7284,-3.30729 5.7284,-3.30729 -5.7284,-3.30729 -5.7284,3.30729 v -6.61459 l 5.7284,-3.30729 5.7284,3.30729 5.72839,-3.30729 -5.72839,-3.30729 v -6.61458 l 5.72839,3.30729 5.72839,3.30729 v 6.61458 l -5.72839,3.3073 v 6.61458 l 5.72839,-3.30729 5.7284,3.30729 -5.7284,3.30729 -5.72839,3.30729 -5.72839,-3.30729 -5.7284,3.30729 v 6.61459 l 5.7284,-3.3073 5.72839,3.3073 -5.72839,3.30729 -5.7284,3.30729 -5.7284,-3.30729 v -6.61459 l -5.7284,-3.30729 -5.72839,-3.30729 v 6.61458 l 5.72839,3.3073 -5.72839,3.30729 -5.7284,-3.30729 v -6.61459 l -5.7284,-3.30729 v 6.61458 l -5.7284,3.3073 v -6.61459 -6.61458 l 5.7284,-3.30729 v -6.61459 l -5.7284,-3.30729 -5.7284,-3.30729 v 6.61458 l 5.7284,3.3073 -5.7284,3.30729 -5.7284,-3.30729 -5.7284,3.30729 v 6.61458 6.61458 l 5.7284,-3.30729 v -6.61458 l 5.7284,3.30729 v 6.61458 l -5.7284,3.3073 v 6.61458 l 5.7284,-3.30729 5.7284,3.30729 -5.7284,3.30729 -5.7284,3.30729 -5.7284,-3.30729 v -6.61458 l -5.72839,-3.30729 v 6.61458 l -5.7284,3.30729 v -6.61458 -6.61459 l 5.7284,-3.30729 v -6.61458 l -5.7284,-3.30729 v 6.61458 l -5.7284,3.30729 v -6.61458 -6.61458 l 5.7284,-3.3073 5.7284,3.3073 5.72839,-3.3073 5.7284,-3.30729 -5.7284,-3.30729 -5.72839,3.30729 v -6.61458 l 5.72839,-3.30729 v -6.61459 l -5.72839,-3.30729 v 6.61459 l -5.7284,3.30729 v -6.61459 -6.61458 l 5.7284,-3.30729 v -6.61458 l -5.7284,-3.3073 -5.7284,-3.30729 v 6.61459 l 5.7284,3.30729 -5.7284,3.30729 -5.7284,-3.30729 -5.728394,3.30729 v 6.61458 6.61459 l 5.728394,-3.3073 v -6.61458 l 5.7284,3.30729 v 6.61459 l -5.7284,3.30729 v 6.61458 l 5.7284,-3.30729 5.7284,3.30729 -5.7284,3.30729 -5.7284,3.30729 -5.728394,-3.30729 v -6.61458 l -5.7284,-3.30729 v 6.61458 l -5.7284,3.30729 v -6.61458 -6.61458 l 5.7284,-3.3073 v -6.61458 l -5.7284,-3.30729 v 6.61458 l -5.72839,3.30729 v -6.61458 -6.61458 l 5.72839,-3.30729 5.7284,3.30729 5.7284,-3.30729 5.728394,-3.3073 -5.728394,-3.30729 -5.7284,3.30729 v -6.61458 l 5.7284,-3.30729 5.728394,3.30729 5.7284,-3.30729 -5.7284,-3.30729 v -6.61459 l 5.7284,3.3073 5.7284,3.30729 v 6.61458 l 5.7284,3.30729 5.72839,-3.30729 5.7284,-3.30729 -5.7284,-3.30729 -5.72839,3.30729 v -6.61458 l 5.72839,-3.3073 5.7284,3.3073 5.7284,-3.3073 5.7284,-3.30729 -5.7284,-3.30729 -5.7284,3.30729 v -6.61458 l 5.7284,-3.30729 v -6.61459 l -5.7284,-3.30729 -5.7284,-3.30729 v 6.61458 l 5.7284,3.3073 -5.7284,3.30729 -5.72839,-3.30729 -5.7284,3.30729 v 6.61458 l 5.7284,-3.30729 5.72839,3.30729 -5.72839,3.30729 -5.7284,3.30729 -5.7284,-3.30729 v -6.61458 l -5.7284,-3.30729 v 6.61458 l -5.728394,3.30729 v -6.61458 -6.61458 l 5.728394,-3.3073 5.7284,3.3073 5.7284,-3.3073 5.7284,-3.30729 -5.7284,-3.30729 -5.7284,3.30729 v -6.61458 l 5.7284,-3.30729 v -6.61459 l -5.7284,-3.30729 v 6.61459 l -5.7284,3.30729 v -6.61459 -6.61458 l 5.7284,-3.30729 v -6.61458 l -5.7284,-3.3073 -5.728394,-3.30729 v 6.61459 l 5.728394,3.30729 -5.728394,3.30729 -5.7284,-3.30729 -5.7284,3.30729 v 6.61458 6.61459 l 5.7284,-3.3073 v -6.61458 l 5.7284,3.30729 v 6.61459 l -5.7284,3.30729 v 6.61458 l 5.7284,-3.30729 5.728394,3.30729 -5.728394,3.30729 -5.7284,3.30729 -5.7284,-3.30729 v -6.61458 l -5.72839,-3.30729 v 6.61458 l -5.7284,3.30729 v -6.61458 -6.61458 l 5.7284,-3.3073 v -6.61458 l -5.7284,-3.30729 v 6.61458 l -5.7284,3.30729 v -6.61458 -6.61458 l 5.7284,-3.30729 5.7284,3.30729 5.72839,-3.30729 5.7284,-3.3073 -5.7284,-3.30729 -5.72839,3.30729 v -6.61458 l 5.72839,-3.30729 v -6.61458 l -5.72839,-3.3073 v 6.61459 l -5.7284,3.30729 v -6.61458 -6.61459 l 5.7284,-3.30729 v -6.61458 l -5.7284,-3.30729 -5.7284,-3.3073 v 6.61459 l 5.7284,3.30729 -5.7284,3.30729 -5.7284,-3.30729 v -6.61458 l -5.72839,-3.3073 -5.7284,-3.30729 v 6.61459 l 5.7284,3.30729 -5.7284,3.30729 -5.7284,-3.30729 -5.72839,3.30729 v 6.61458 6.61459 l 5.72839,-3.3073 v -6.61458 l 5.7284,3.30729 v 6.61459 l 5.7284,3.30729 5.72839,-3.30729 -5.72839,-3.3073 v -6.61458 l 5.72839,3.30729 5.7284,3.30729 v 6.61459 l -5.7284,3.30729 v 6.61458 l 5.7284,-3.30729 5.7284,3.30729 -5.7284,3.30729 -5.7284,3.3073 -5.72839,-3.3073 v -6.61458 l -5.7284,-3.30729 -5.7284,-3.30729 v 6.61458 l 5.7284,3.30729 -5.7284,3.30729 -5.72839,-3.30729 -5.7284,3.30729 v 6.61459 l 5.7284,-3.30729 5.72839,3.30729 -5.72839,3.30729 -5.7284,3.30729 -5.7284,-3.30729 -5.7284,3.30729 v 6.61458 6.61459 l 5.7284,-3.30729 v -6.61459 l 5.7284,3.30729 v 6.61459 l -5.7284,3.30729 v 6.61458 6.61459 l 5.7284,-3.3073 v -6.61458 l 5.7284,3.30729 v 6.61459 l 5.72839,3.30729 5.7284,-3.30729 5.7284,-3.3073 -5.7284,-3.30729 -5.7284,3.30729 v -6.61458 l 5.7284,-3.30729 v -6.61458 l -5.7284,-3.3073 v 6.61459 l -5.72839,3.30729 v -6.61458 -6.61459 l 5.72839,-3.30729 5.7284,3.30729 5.7284,-3.30729 -5.7284,-3.30729 v -6.61458 l 5.7284,3.30729 5.72839,3.30729 v 6.61458 l -5.72839,3.30729 v 6.61459 6.61458 l 5.72839,-3.30729 v -6.61458 l 5.7284,3.30729 v 6.61458 l -5.7284,3.30729 v 6.61459 l 5.7284,-3.3073 5.7284,3.3073 -5.7284,3.30729 -5.7284,3.30729 -5.72839,-3.30729 -5.7284,3.30729 v 6.61458 6.61459 l 5.7284,-3.3073 v -6.61458 l 5.72839,3.30729 v 6.61459 l 5.7284,3.30729 5.7284,-3.30729 5.7284,-3.3073 -5.7284,-3.30729 -5.7284,3.30729 v -6.61458 l 5.7284,-3.30729 5.7284,3.30729 5.72839,-3.30729 -5.72839,-3.30729 v -6.61459 l 5.72839,3.3073 5.7284,3.30729 v 6.61458 l -5.7284,3.30729 v 6.61459 l 5.7284,-3.3073 5.7284,3.3073 -5.7284,3.30729 -5.7284,3.30729 -5.72839,-3.30729 -5.7284,3.30729 v 6.61458 l 5.7284,-3.30729 5.72839,3.30729 -5.72839,3.30729 -5.7284,3.3073 -5.7284,-3.3073 v -6.61458 l -5.7284,-3.30729 -5.72839,-3.30729 v 6.61458 l 5.72839,3.30729 -5.72839,3.30729 -5.7284,-3.30729 v -6.61458 l -5.7284,-3.30729 v 6.61458 l -5.72839,3.30729 v -6.61458 -6.61458 l 5.72839,-3.3073 v -6.61458 l -5.72839,-3.30729 -5.7284,-3.30729 v 6.61458 l 5.7284,3.30729 -5.7284,3.30729 -5.7284,-3.30729 -5.7284,3.30729 v 6.61459 6.61458 l 5.7284,-3.30729 v -6.61458 l 5.7284,3.30729 v 6.61458 l -5.7284,3.30729 v 6.61459 l 5.7284,-3.3073 5.7284,3.3073 -5.7284,3.30729 -5.7284,3.30729 -5.7284,-3.30729 v -6.61459 l -5.72839,-3.30729 v 6.61459 l -5.7284,3.30729 v -6.61459 -6.61458 l 5.7284,-3.30729 v -6.61458 l -5.7284,-3.3073 v 6.61459 l -5.7283996,3.30729 v -6.61458 -6.61459 l 5.7283996,-3.30729 5.7284,3.30729 5.72839,-3.30729 5.7284,-3.30729 -5.7284,-3.30729 -5.72839,3.30729 v -6.61458 l 5.72839,-3.3073 v -6.61458 l -5.72839,-3.30729 v 6.61458 l -5.7284,3.30729 v -6.61458 -6.61458 l 5.7284,-3.30729 v -6.61459 l -5.7284,-3.30729 -5.7283996,-3.30729 v 6.61458 l 5.7283996,3.30729 -5.7283996,3.3073 -5.7284,-3.3073 -5.72839,3.3073 v 6.61458 6.61458 l 5.72839,-3.30729 v -6.61458 l 5.7284,3.30729 v 6.61458 l -5.7284,3.30729 v 6.61459 l 5.7284,-3.30729 5.7283996,3.30729 -5.7283996,3.30729 -5.7284,3.30729 -5.72839,-3.30729 v -6.61458 l -5.7284,-3.3073 v 6.61459 l -5.7284004,3.30729 v -6.61458 -6.61459 l 5.7284004,-3.30729 v -6.61458 l -5.7284004,-3.30729 v 6.61458 l -5.72839,3.30729 v -6.61458 -6.61459 l 5.72839,-3.30729 5.7284004,3.30729 5.7284,-3.30729 5.72839,-3.30729 -5.72839,-3.30729 -5.7284,3.30729 v -6.61458 l 5.7284,-3.30729 5.72839,3.30729 5.7284,-3.30729 -5.7284,-3.3073 v -6.61458 l 5.7284,3.30729 5.7283996,3.30729 v 6.61459 l 5.7284,3.30729 5.72839,-3.30729 5.7284,-3.30729 -5.7284,-3.3073 -5.72839,3.3073 v -6.61459 l 5.72839,-3.30729 5.7284,3.30729 5.7284,-3.30729 5.7284,-3.30729 -5.7284,-3.30729 -5.7284,3.30729 v -6.61458 l 5.7284,-3.3073 v -6.61458 l -5.7284,-3.30729 -5.7284,-3.30729 v 6.61458 l 5.7284,3.30729 -5.7284,3.30729 -5.72839,-3.30729 -5.7284,3.30729 v 6.61459 l 5.7284,-3.30729 5.72839,3.30729 -5.72839,3.30729 -5.7284,3.30729 -5.7283996,-3.30729 v -6.61458 l -5.7284,-3.3073 v 6.61459 l -5.72839,3.30729 v -6.61458 -6.61459 l 5.72839,-3.30729 5.7284,3.30729 5.7283996,-3.30729 5.7284,-3.30729 -5.7284,-3.30729 -5.7283996,3.30729 v -6.61458 l 5.7283996,-3.3073 5.7284,3.3073 5.72839,-3.3073 -5.72839,-3.30729 v -6.61458 l 5.72839,3.30729 5.7284,3.30729 v 6.61459 l 5.7284,3.30729 5.7284,-3.30729 5.72839,-3.3073 -5.72839,-3.30729 -5.7284,3.30729 v -6.61458 l 5.7284,-3.30729 v -6.61458 l -5.7284,-3.3073 -5.7284,-3.30729 v 6.61459 l 5.7284,3.30729 -5.7284,3.30729 -5.7284,-3.30729 v -6.61459 l -5.72839,-3.30729 v 6.61459 l -5.7284,3.30729 v -6.61459 -6.61458 l 5.7284,-3.30729 5.72839,3.30729 5.7284,-3.30729 -5.7284,-3.30729 v -6.61459 l 5.7284,3.3073 5.7284,3.30729 v 6.61458 l 5.7284,3.30729 5.72839,-3.30729 -5.72839,-3.30729 v -6.61458 l 5.72839,3.30729 5.7284,3.30729 v 6.61458 l -5.7284,3.30729 v 6.61459 6.61458 l 5.7284,-3.30729 v -6.61458 l 5.7284,3.30729 v 6.61458 l 5.72839,3.30729 5.7284,-3.30729 -5.7284,-3.30729 v -6.61458 l 5.7284,3.30729 5.7284,3.30729 v 6.61458 l 5.7284,3.30729 5.72839,-3.30729 5.7284,-3.30729 -5.7284,-3.30729 -5.72839,3.30729 v -6.61458 l 5.72839,-3.30729 5.7284,3.30729 5.7284,-3.30729 5.728394,-3.3073 -5.728394,-3.30729 -5.7284,3.30729 v -6.61458 l 5.7284,-3.30729 v -6.61458 l -5.7284,-3.3073 -5.7284,-3.30729 v 6.61459 l 5.7284,3.30729 -5.7284,3.30729 -5.72839,-3.30729 -5.7284,3.30729 v 6.61458 l 5.7284,-3.30729 5.72839,3.30729 -5.72839,3.30729 -5.7284,3.3073 -5.7284,-3.3073 v -6.61458 l -5.7284,-3.30729 v 6.61458 l -5.72839,3.30729 v -6.61458 -6.61458 l 5.72839,-3.30729 5.7284,3.30729 5.7284,-3.30729 5.7284,-3.3073 -5.7284,-3.30729 -5.7284,3.30729 v -6.61458 l 5.7284,-3.30729 5.7284,3.30729 5.72839,-3.30729 -5.72839,-3.30729 v -6.61459 l 5.72839,3.3073 5.7284,3.30729 v 6.61458 l 5.7284,3.30729 5.728394,-3.30729 5.7284,-3.30729 -5.7284,-3.30729 -5.728394,3.30729 v -6.61458 l 5.728394,-3.3073 5.7284,3.3073 5.7284,-3.3073 5.7284,-3.30729 -5.7284,-3.30729 -5.7284,3.30729 v -6.61458 l 5.7284,-3.30729 v -6.61459 l -5.7284,-3.30729 -5.7284,-3.30729 v 6.61458 l 5.7284,3.3073 -5.7284,3.30729 -5.728394,-3.30729 -5.7284,3.30729 v 6.61458 l 5.7284,-3.30729 5.728394,3.30729 -5.728394,3.30729 -5.7284,3.30729 -5.7284,-3.30729 v -6.61458 l -5.72839,-3.30729 v 6.61458 l -5.7284,3.30729 v -6.61458 -6.61458 l 5.7284,-3.3073 5.72839,3.3073 5.7284,-3.3073 5.7284,-3.30729 -5.7284,-3.30729 -5.7284,3.30729 v -6.61458 l 5.7284,-3.30729 v -6.61459 l -5.7284,-3.30729 v 6.61459 l -5.72839,3.30729 v -6.61459 -6.61458 l 5.72839,-3.30729 v -6.61458 l -5.72839,-3.3073 -5.7284,-3.30729 v 6.61459 l 5.7284,3.30729 -5.7284,3.30729 -5.7284,-3.30729 v -6.61459 l -5.7284,-3.30729 -5.72839,-3.30729 v 6.61458 l 5.72839,3.3073 -5.72839,3.30729 -5.7284,-3.30729 -5.7284,3.30729 v 6.61458 6.61458 l 5.7284,-3.30729 v -6.61458 l 5.7284,3.30729 v 6.61458 l 5.72839,3.3073 5.7284,-3.3073 -5.7284,-3.30729 v -6.61458 l 5.7284,3.30729 5.7284,3.30729 v 6.61459 l -5.7284,3.30729 v 6.61458 l 5.7284,-3.30729 5.7284,3.30729 -5.7284,3.30729 -5.7284,3.30729 -5.7284,-3.30729 v -6.61458 l -5.72839,-3.30729 -5.7284,-3.30729 v 6.61458 l 5.7284,3.30729 -5.7284,3.30729 -5.7284,-3.30729 -5.72839,3.30729 v 6.61459 l 5.72839,-3.3073 5.7284,3.3073 -5.7284,3.30729 -5.72839,3.30729 -5.7284,-3.30729 -5.7284,3.30729 v 6.61458 6.61459 l 5.7284,-3.3073 v -6.61458 l 5.7284,3.30729 v 6.61459 l 5.72839,3.30729 5.7284,-3.30729 5.7284,-3.3073 -5.7284,-3.30729 -5.7284,3.30729 v -6.61458 l 5.7284,-3.30729 5.7284,3.30729 5.72839,-3.30729 -5.72839,-3.30729 v -6.61459 l 5.72839,3.3073 5.7284,3.30729 v 6.61458 l -5.7284,3.30729 v 6.61459 l 5.7284,-3.3073 5.7284,3.3073 -5.7284,3.30729 -5.7284,3.30729 -5.72839,-3.30729 -5.7284,3.30729 v 6.61458 l 5.7284,-3.30729 5.72839,3.30729 -5.72839,3.30729 -5.7284,3.3073 -5.7284,-3.3073 v -6.61458 l -5.72839,-3.30729 -5.7284,-3.30729 v 6.61458 l 5.7284,3.30729 -5.7284,3.30729 -5.7284,-3.30729 v -6.61458 l -5.7284,-3.30729 v 6.61458 l -5.72839,3.30729 v -6.61458 -6.61458 l 5.72839,-3.3073 v -6.61458 l -5.72839,-3.30729 -5.7284,-3.30729 v 6.61458 l 5.7284,3.30729 -5.7284,3.30729 -5.7283996,-3.30729 -5.7284,3.30729 v 6.61459 6.61458 l 5.7284,-3.30729 v -6.61458 l 5.7283996,3.30729 v 6.61458 l -5.7283996,3.30729 v 6.61459 l 5.7283996,-3.3073 5.7284,3.3073 -5.7284,3.30729 -5.7283996,3.30729 -5.7284,-3.30729 v -6.61459 l -5.72839,-3.30729 v 6.61459 l -5.7284,3.30729 v -6.61459 -6.61458 l 5.7284,-3.30729 v -6.61458 l -5.7284,-3.3073 v 6.61459 l -5.7284004,3.30729 v -6.61458 -6.61459 l 5.7284004,-3.30729 5.7284,3.30729 5.72839,-3.30729 5.7284,-3.30729 -5.7284,-3.30729 -5.72839,3.30729 v -6.61458 l 5.72839,-3.3073 5.7284,3.3073 5.7283996,-3.3073 -5.7283996,-3.30729 v -6.61458 l 5.7283996,3.30729 5.7284,3.30729 v 6.61459 l 5.72839,3.30729 5.7284,-3.30729 5.7284,-3.3073 -5.7284,-3.30729 -5.7284,3.30729 v -6.61458 l 5.7284,-3.30729 5.7284,3.30729 5.7284,-3.30729 5.72839,-3.30729 -5.72839,-3.30729 -5.7284,3.30729 v -6.61459 l 5.7284,-3.30729 v -6.61458 l -5.7284,-3.30729 -5.7284,-3.30729 v 6.61458 l 5.7284,3.30729 -5.7284,3.30729 -5.7284,-3.30729 -5.72839,3.30729 v 6.61459 l 5.72839,-3.3073 5.7284,3.3073 -5.7284,3.30729 -5.72839,3.30729 -5.7284,-3.30729 v -6.61459 L 7.8509264,305.6157 v 6.61459 l -5.7284,3.30729 v -6.61459 -6.61458 l 5.7284,-3.30729 5.7283996,3.30729 5.7284,-3.30729 5.72839,-3.30729 -5.72839,-3.30729 -5.7284,3.30729 v -6.61459 l 5.7284,-3.30729"
             style="fill:none;fill-opacity:1;stroke:#333333;stroke-width:0.26458332;stroke-linecap:butt;stroke-linejoin:miter;stroke-opacity:1"
             id="path5908-8" />
          <rect
             style="opacity:0.9;fill:#ffffff;fill-opacity:1;stroke:none;stroke-width:0.13721247;stroke-miterlimit:4;stroke-dasharray:none;stroke-opacity:1"
             id="rect5305"
             width="22.802889"
             height="3.6664853"
             x="-246.0249"
             y="154.42558" />
          <rect
             y="122.1501"
             x="-295.04172"
             height="19.322485"
             width="34.157509"
             id="rect4574"
             style="opacity:0.9;fill:#ffffff;fill-opacity:1;stroke:none;stroke-width:0.43622881;stroke-miterlimit:4;stroke-dasharray:none;stroke-opacity:1" />
          <rect
             style="opacity:0.9;fill:#ffffff;fill-opacity:1;stroke:none;stroke-width:0.208269;stroke-miterlimit:4;stroke-dasharray:none;stroke-opacity:1"
             id="rect5183"
             width="11.241968"
             height="13.382195"
             x="-286.75638"
             y="141.00015" />
          <rect
             style="opacity:0.9;fill:#ffffff;fill-opacity:1;stroke:none;stroke-width:0.47600001;stroke-miterlimit:4;stroke-dasharray:none;stroke-opacity:1"
             id="rect4570"
             width="51.9184"
             height="19.379618"
             x="-260.32379"
             y="122.15539" />
          <text
             xml:space="preserve"
             style="font-style:normal;font-variant:normal;font-weight:normal;font-stretch:normal;font-size:10.58333302px;line-height:1.25;font-family:Consolas;-inkscape-font-specification:Consolas;letter-spacing:0px;word-spacing:0px;fill:#000000;fill-opacity:1;stroke:none;stroke-width:0.26458332"
             x="-245.231"
             y="157.41338"
             id="text5303"><tspan
               sodipodi:role="line"
               id="tspan5301"
               x="-245.231"
               y="157.41338"
               style="font-style:normal;font-variant:normal;font-weight:normal;font-stretch:normal;font-size:3.88055563px;font-family:Inconsolata;-inkscape-font-specification:Inconsolata;stroke-width:0.26458332">wb da da bg</tspan></text>
          <rect
             y="141.00381"
             x="-274.7511"
             height="13.421763"
             width="70.711372"
             id="rect5185"
             style="opacity:0.9;fill:#ffffff;fill-opacity:1;stroke:none;stroke-width:0.4622992;stroke-miterlimit:4;stroke-dasharray:none;stroke-opacity:1" />
          <rect
             y="122.11848"
             x="-207.90771"
             height="19.453428"
             width="41.342739"
             id="rect4580"
             style="opacity:0.9;fill:#ffffff;fill-opacity:0.90196078;stroke:none;stroke-width:0.4255704;stroke-miterlimit:4;stroke-dasharray:none;stroke-opacity:0.90196078" />
          <text
             xml:space="preserve"
             style="font-style:normal;font-variant:normal;font-weight:normal;font-stretch:normal;font-size:10.58333302px;line-height:1.25;font-family:Inconsolata;-inkscape-font-specification:Inconsolata;letter-spacing:0px;word-spacing:0px;fill:#000000;fill-opacity:1;stroke:none;stroke-width:0.26458332"
             x="-294.7403"
             y="137.0677"
             id="text5420-1-7"><tspan
               sodipodi:role="line"
               x="-294.7403"
               y="137.0677"
               style="font-style:normal;font-variant:normal;font-weight:normal;font-stretch:normal;font-size:16.93333244px;font-family:Inconsolata;-inkscape-font-specification:Inconsolata;stroke-width:0.26458332"
               id="tspan5426-5-7">GEOMETR<tspan
   id="tspan5251"
   style="font-size:2.82222223px" />IC SHANK</tspan></text>
          <rect
             style="opacity:0.9;fill:#ff6666;fill-opacity:1;stroke:#333333;stroke-width:0.52916664;stroke-miterlimit:4;stroke-dasharray:none;stroke-opacity:1"
             id="rect4516-8"
             width="35.279575"
             height="35.279575"
             x="-318.02252"
             y="68.812576" />
          <rect
             style="opacity:0.9;fill:#ff6666;fill-opacity:1;stroke:#333333;stroke-width:0.52916664;stroke-miterlimit:4;stroke-dasharray:none;stroke-opacity:1"
             id="rect4516-2-1"
             width="35.279575"
             height="35.279575"
             x="-301.45181"
             y="83.245102" />
          <rect
             y="68.278023"
             x="-260.32379"
             height="35.279575"
             width="35.279575"
             id="rect4533-6"
             style="opacity:0.9;fill:#fbb829;fill-opacity:1;stroke:#d40000;stroke-width:0.52916664;stroke-miterlimit:4;stroke-dasharray:none;stroke-opacity:1" />
          <rect
             y="82.710587"
             x="-243.75307"
             height="35.279575"
             width="35.279575"
             id="rect4535-0"
             style="opacity:0.9;fill:#fbb829;fill-opacity:1;stroke:#d40000;stroke-width:0.52916664;stroke-miterlimit:4;stroke-dasharray:none;stroke-opacity:1" />
          <rect
             style="opacity:0.9;fill:#ff7a22;fill-opacity:1;stroke:#333333;stroke-width:0.52916664;stroke-miterlimit:4;stroke-dasharray:none;stroke-opacity:1"
             id="rect4537-1"
             width="35.279575"
             height="35.279575"
             x="-202.6443"
             y="68.278023" />
          <rect
             style="opacity:0.9;fill:#ff7a22;fill-opacity:1;stroke:#333333;stroke-width:0.52916664;stroke-miterlimit:4;stroke-dasharray:none;stroke-opacity:1"
             id="rect4539-2"
             width="35.279575"
             height="35.279575"
             x="-186.07362"
             y="82.710587" />
          <rect
             style="opacity:0.9;fill:#ffffff;fill-opacity:0.90196078;stroke:none;stroke-width:0.31021485;stroke-miterlimit:4;stroke-dasharray:none;stroke-opacity:0.90196078"
             id="rect5187"
             width="31.718832"
             height="13.472881"
             x="-203.36192"
             y="140.97824" />
          <text
             id="text5249"
             y="152.76414"
             x="-283.02866"
             style="font-style:normal;font-variant:normal;font-weight:normal;font-stretch:normal;font-size:10.58333302px;line-height:1.25;font-family:Consolas;-inkscape-font-specification:Consolas;letter-spacing:0px;word-spacing:0px;fill:#ff0000;fill-opacity:0.99215686;stroke:none;stroke-width:0.26458332"
             xml:space="preserve"><tspan
               style="font-style:normal;font-variant:normal;font-weight:bold;font-stretch:normal;font-size:3.88055563px;font-family:Inconsolata;-inkscape-font-specification:'Inconsolata Bold';fill:#ff0000;fill-opacity:0.99215686;stroke-width:0.26458332"
               y="152.76414"
               x="-283.02866"
               id="tspan5247"
               sodipodi:role="line">SEEM TO REFER TO FUTURE EVENTS TO FUTURE EVENTS TO FUTURE</tspan></text>
          <text
             id="text5231"
             y="143.76843"
             x="-283.02866"
             style="font-style:normal;font-variant:normal;font-weight:normal;font-stretch:normal;font-size:10.58333302px;line-height:1.25;font-family:Consolas;-inkscape-font-specification:Consolas;letter-spacing:0px;word-spacing:0px;fill:#000000;fill-opacity:1;stroke:none;stroke-width:0.26458332"
             xml:space="preserve"><tspan
               style="font-style:normal;font-variant:normal;font-weight:bold;font-stretch:normal;font-size:3.88055563px;font-family:Inconsolata;-inkscape-font-specification:'Inconsolata Bold';stroke-width:0.26458332"
               y="143.76843"
               x="-283.02866"
               id="tspan5229"
               sodipodi:role="line">when you experiment with  cut-ups over a period of time</tspan></text>
          <text
             xml:space="preserve"
             style="font-style:normal;font-variant:normal;font-weight:normal;font-stretch:normal;font-size:10.58333302px;line-height:1.25;font-family:Consolas;-inkscape-font-specification:Consolas;letter-spacing:0px;word-spacing:0px;fill:#000000;fill-opacity:1;stroke:none;stroke-width:0.26458332"
             x="-283.02866"
             y="148.00171"
             id="text5245"><tspan
               sodipodi:role="line"
               id="tspan5243"
               x="-283.02866"
               y="148.00171"
               style="font-style:normal;font-variant:normal;font-weight:bold;font-stretch:normal;font-size:3.88055563px;font-family:Inconsolata;-inkscape-font-specification:'Inconsolata Bold';stroke-width:0.26458332">you'll find that some of  the cut-ups and rearranged text </tspan></text>
        </g>
      </g>
    </g>
  </g>
</svg>
